<svg width="512" height="512" viewBox="0 0 512 512" fill="none" xmlns="http://www.w3.org/2000/svg">
<path d="M426.768 136.186L152.65 24.236L69.382 228.088L63.824 241.784L77.619 247.441L83.177 233.647L160.788 43.689L387.367 136.186H165.751V438.69L23.233 380.432L56.281 299.446L49.434 296.668L56.281 299.446L60.648 288.828L46.952 283.171L42.586 293.889L3.87903 388.57L165.751 454.768V488.114H509.64V262.924V260.344V248.037H494.752V260.344V262.924V473.228H180.637V460.821V151.073H463.193H494.752V188.489V203.377H509.64V188.489V136.186H426.768Z" fill="white"/>
<path d="M494.752 218.263H509.64V233.15H494.752V218.263Z" fill="white"/>
<path d="M71.8588 261.297L66.2311 275.083L52.4448 269.455L58.0725 255.669L71.8588 261.297Z" fill="white"/>
<path d="M210.61 440.277H215.374H286.732H299.535H463.689H464.78V186.007H210.61V440.277ZM311.941 425.391L379.13 303.615L396.697 339.046H365.633V353.934H404.041L439.571 425.491H311.941V425.391ZM449.893 200.895V412.588L379.726 271.459L294.87 425.391H240.483L307.772 303.318L323.156 333.191L336.356 326.343L308.168 271.559L225.497 421.917V200.895H449.893Z" fill="white"/>
<path d="M409.004 268.779C424.783 268.779 437.586 255.976 437.586 240.196C437.586 224.416 424.783 211.613 409.004 211.613C393.223 211.613 380.42 224.416 380.42 240.196C380.42 255.976 393.223 268.779 409.004 268.779ZM409.004 226.501C416.546 226.501 422.7 232.654 422.7 240.197C422.7 247.739 416.546 253.893 409.004 253.893C401.46 253.893 395.308 247.74 395.308 240.197C395.308 232.654 401.46 226.501 409.004 226.501Z" fill="white"/>
</svg>
