<svg width="512" height="512" viewBox="0 0 512 512" fill="none" xmlns="http://www.w3.org/2000/svg">
<path d="M393.382 269.713H221.654C217.512 269.713 214.154 273.071 214.154 277.213C214.154 281.355 217.512 284.713 221.654 284.713H393.382C397.524 284.713 400.882 281.355 400.882 277.213C400.882 273.071 397.524 269.713 393.382 269.713Z" fill="white"/>
<path d="M393.382 302.039H221.654C217.512 302.039 214.154 305.397 214.154 309.539C214.154 313.681 217.512 317.039 221.654 317.039H393.382C397.524 317.039 400.882 313.681 400.882 309.539C400.882 305.397 397.524 302.039 393.382 302.039Z" fill="white"/>
<path d="M393.382 334.364H221.654C217.512 334.364 214.154 337.722 214.154 341.864C214.154 346.006 217.512 349.364 221.654 349.364H393.382C397.524 349.364 400.882 346.006 400.882 341.864C400.882 337.722 397.524 334.364 393.382 334.364Z" fill="white"/>
<path d="M393.382 366.689H221.654C217.512 366.689 214.154 370.047 214.154 374.189C214.154 378.331 217.512 381.689 221.654 381.689H393.382C397.524 381.689 400.882 378.331 400.882 374.189C400.882 370.047 397.524 366.689 393.382 366.689Z" fill="white"/>
<path d="M393.382 399.014H221.654C217.512 399.014 214.154 402.372 214.154 406.514C214.154 410.656 217.512 414.014 221.654 414.014H393.382C397.524 414.014 400.882 410.656 400.882 406.514C400.882 402.372 397.524 399.014 393.382 399.014Z" fill="white"/>
<path d="M393.382 431.339H221.654C217.512 431.339 214.154 434.697 214.154 438.839C214.154 442.981 217.512 446.339 221.654 446.339H393.382C397.524 446.339 400.882 442.981 400.882 438.839C400.882 434.697 397.524 431.339 393.382 431.339Z" fill="white"/>
<path d="M39.825 478.665H393.382C397.524 478.665 400.882 475.307 400.882 471.165C400.882 467.023 397.524 463.665 393.382 463.665H39.825C35.683 463.665 32.325 467.023 32.325 471.165C32.325 475.307 35.683 478.665 39.825 478.665Z" fill="white"/>
<path d="M32.325 438.839C32.325 442.981 35.683 446.339 39.825 446.339H181.248C185.39 446.339 188.748 442.981 188.748 438.839V277.213C188.748 273.071 185.39 269.713 181.248 269.713H39.825C35.683 269.713 32.325 273.071 32.325 277.213V438.839ZM47.325 284.713H173.748V431.339H47.325V284.713Z" fill="white"/>
<path d="M400.882 101.445C400.882 97.303 397.524 93.945 393.382 93.945H39.825C35.683 93.945 32.325 97.303 32.325 101.445V236.807C32.325 240.949 35.683 244.307 39.825 244.307H393.382C397.524 244.307 400.882 240.949 400.882 236.807V101.445ZM385.882 229.307H47.325V108.945H385.882V229.307Z" fill="white"/>
<path d="M69.425 211.982C73.567 211.982 76.925 208.624 76.925 204.482V157.961L110.977 207.271C113.234 210.532 116.979 211.924 120.514 210.819C124.135 209.688 126.475 206.265 126.474 202.026L125.813 133.698C125.773 129.58 122.423 126.27 118.315 126.27C118.291 126.27 118.266 126.27 118.241 126.27C114.099 126.31 110.774 129.7 110.814 133.842L111.273 181.303L75.595 129.639C73.73 126.938 70.326 125.764 67.192 126.741C64.058 127.718 61.924 130.619 61.924 133.901V204.481C61.925 208.624 65.283 211.982 69.425 211.982Z" fill="white"/>
<path d="M150.687 211.982H180.482C184.624 211.982 187.982 208.624 187.982 204.482C187.982 200.34 184.624 196.982 180.482 196.982H158.187V176.626H178.285C182.427 176.626 185.785 173.268 185.785 169.126C185.785 164.984 182.427 161.626 178.285 161.626H158.187V141.271H180.482C184.624 141.271 187.982 137.913 187.982 133.771C187.982 129.629 184.624 126.271 180.482 126.271H150.687C146.545 126.271 143.187 129.629 143.187 133.771V204.482C143.187 208.624 146.545 211.982 150.687 211.982Z" fill="white"/>
<path d="M342.505 211.982C356.757 211.982 368.717 202.937 370.942 190.475C372.607 181.149 368.306 168.942 351.241 162.647C342.34 159.364 334.07 155.784 331.763 154.772C329.936 153.376 329.055 151.187 329.394 148.82C329.61 147.318 330.681 143.653 335.957 142.063C346.649 138.845 356.414 146.615 356.651 146.808C359.822 149.445 364.53 149.027 367.186 145.866C369.851 142.696 369.441 137.965 366.27 135.299C365.625 134.757 350.262 122.089 331.63 127.701C322.372 130.49 315.826 137.765 314.545 146.689C313.348 155.03 316.962 163.052 323.977 167.625C324.308 167.841 324.656 168.031 325.017 168.191C325.425 168.373 335.123 172.69 346.049 176.72C353.27 179.384 356.961 183.436 356.174 187.838C355.371 192.333 350.039 196.982 342.504 196.982C335.105 196.982 327.97 193.984 323.42 188.963C320.638 185.894 315.896 185.66 312.826 188.442C309.757 191.224 309.524 195.966 312.305 199.036C319.653 207.143 330.942 211.982 342.505 211.982Z" fill="white"/>
<path d="M219.227 204.875C219.298 205.233 219.394 205.585 219.517 205.929C220.805 209.555 224.244 211.981 228.088 211.981H228.149C232.018 211.955 235.454 209.477 236.7 205.814C236.722 205.749 236.743 205.683 236.764 205.617L251.114 159.255L265.4 205.628C265.431 205.73 265.465 205.832 265.501 205.932C266.79 209.557 270.229 211.981 274.072 211.981H274.134C278.002 211.955 281.438 209.476 282.683 205.814C282.789 205.503 282.874 205.185 282.938 204.863L296.77 135.364C297.578 131.302 294.94 127.353 290.878 126.544C286.817 125.738 282.867 128.373 282.058 132.436L272.831 178.8L258.278 131.562L258.235 131.575C257.504 129.342 255.744 127.483 253.328 126.735C249.371 125.512 245.171 127.725 243.946 131.682L229.36 178.805L220.164 132.315C219.36 128.251 215.41 125.608 211.352 126.413C207.289 127.217 204.646 131.163 205.45 135.225L219.227 204.875Z" fill="white"/>
<path d="M485.787 0.018C485.617 0.011 484.963 0 484.8 0H346.59C342.448 0 339.09 3.358 339.09 7.5C339.09 11.642 342.448 15 346.59 15H460.493C458.643 18.671 457.6 22.816 457.6 27.2V197.5C457.6 201.642 460.958 205 465.1 205C469.242 205 472.6 201.642 472.6 197.5V27.2C472.549 20.606 478.245 14.908 485.029 14.988C491.348 15.069 496.995 20.856 497 27.67V466.6C497 483.363 482.691 497 465.104 497C465.103 497 465.103 497 465.102 497C465.101 497 465.101 497 465.1 497C447.516 497 433.21 483.363 433.21 466.6V409.97H444.9C460.174 409.97 472.6 397.544 472.6 382.27V232.5C472.6 228.358 469.242 225 465.1 225C460.958 225 457.6 228.358 457.6 232.5V382.27C457.6 389.273 451.903 394.97 444.9 394.97H433.21V90.33C433.21 75.056 420.779 62.63 405.5 62.63H56.42V27.2C56.42 20.473 61.888 15 68.61 15H311.59C315.732 15 319.09 11.642 319.09 7.5C319.09 3.358 315.732 0 311.59 0H68.61C53.617 0 41.42 12.202 41.42 27.2V62.63H27.7C12.426 62.63 0 75.056 0 90.33V311.47C0 315.612 3.358 318.97 7.5 318.97C11.642 318.97 15 315.612 15 311.47V90.33C15 83.327 20.697 77.63 27.7 77.63H405.5C412.508 77.63 418.21 83.327 418.21 90.33V466.6C418.21 478.281 422.79 488.946 430.303 497H46.9C29.31 497 15 483.363 15 466.6V346.47C15 342.328 11.642 338.97 7.5 338.97C3.358 338.97 0 342.328 0 346.47V466.6C0 491.634 21.039 512 46.9 512H465.1H465.102C465.102 512 465.103 512 465.104 512C490.962 512 512 491.633 512 466.6V27.67C512 12.687 500.485 0.54 485.787 0.018Z" fill="white"/>
</svg>
