<svg width="477" height="477" viewBox="0 0 477 477" fill="none" xmlns="http://www.w3.org/2000/svg">
<g clip-path="url(#clip0)">
<path d="M461.776 209.408L249.568 4.51999C243.386 -1.50601 233.526 -1.50601 227.344 4.51999L15.144 209.4C12.02 212.415 10.256 216.57 10.256 220.912C10.256 229.749 17.42 236.912 26.256 236.912H54.456V460.912C54.456 469.749 61.619 476.912 70.456 476.912H182.456C191.293 476.912 198.456 469.749 198.456 460.912V332.912H278.456V460.912C278.456 469.749 285.619 476.912 294.456 476.912H406.456C415.293 476.912 422.456 469.749 422.456 460.912V236.912H450.656C454.994 236.912 459.145 235.151 462.16 232.032C468.301 225.678 468.129 215.549 461.776 209.408ZM422.456 220.912C413.619 220.912 406.456 228.075 406.456 236.912V460.912H294.456V332.912C294.456 324.075 287.293 316.912 278.456 316.912H198.456C189.619 316.912 182.456 324.075 182.456 332.912V460.912H70.456V236.912C70.456 228.075 63.293 220.912 54.456 220.912H26.256L238.456 16.032L450.736 220.912H422.456Z" fill="white"/>
</g>
<defs>
<clipPath id="clip0">
<rect width="476.912" height="476.912" fill="white"/>
</clipPath>
</defs>
</svg>
