<svg width="512" height="512" viewBox="0 0 512 512" fill="none" xmlns="http://www.w3.org/2000/svg">
<path d="M345.999 497H218.5V512H360.999V362.001H345.999V497Z" fill="white"/>
<path d="M76.001 227.002H61.001V512H203.5V497H76.001V227.002Z" fill="white"/>
<path d="M345.999 227.002H360.999V347.001H345.999V227.002Z" fill="white"/>
<path d="M61.001 15H360.999V172.732L348.863 197.002H218.5V212.002H358.134L375.999 176.273V0H46.001V60H61.001V15Z" fill="white"/>
<path d="M203.5 212.002V197.002H73.136L61.001 172.732V75H46.001V176.273L63.866 212.002H203.5Z" fill="white"/>
<path d="M271 98.5H286V113.5H271V98.5Z" fill="white"/>
<path d="M330.999 60H345.999V105H330.999V60Z" fill="white"/>
<path d="M136 128.501H151V143.501H136V128.501Z" fill="white"/>
<path d="M151.001 467H166.001V482H151.001V467Z" fill="white"/>
<path d="M421 257.001H436V272.001H421V257.001Z" fill="white"/>
<path d="M76.001 159.503H91.001V174.503H76.001V159.503Z" fill="white"/>
<path d="M91.001 467H136.001V482H91.001V467Z" fill="white"/>
<path d="M330.999 30H345.999V45H330.999V30Z" fill="white"/>
<path d="M421 287.002H436V332.002H421V287.002Z" fill="white"/>
<path d="M76.001 99.502H91.001V144.502H76.001V99.502Z" fill="white"/>
<path d="M315.999 287.001H255.999V332.001H315.999V287.001ZM300.999 317.001H270.999V302.001H300.999V317.001Z" fill="white"/>
<path d="M166 227.002H106V272.002H166V227.002ZM151 257.002H121V242.002H151V257.002Z" fill="white"/>
<path d="M106 392.001H166V347.001H106V392.001ZM121 362.001H151V377.001H121V362.001Z" fill="white"/>
<path d="M315.999 347.001H255.999V392.001H315.999V347.001ZM300.999 377.001H270.999V362.001H300.999V377.001Z" fill="white"/>
<path d="M255.999 452H315.999V407H255.999V452ZM270.999 422H300.999V437H270.999V422Z" fill="white"/>
<path d="M315.999 227.002H255.999V272.002H315.999V227.002ZM300.999 257.002H270.999V242.002H300.999V257.002Z" fill="white"/>
<path d="M181 452H241V407H181V452ZM196 422H226V437H196V422Z" fill="white"/>
<path d="M241 227.002H181V272.002H241V227.002ZM226 257.002H196V242.002H226V257.002Z" fill="white"/>
<path d="M166 407H106V452H166V407ZM151 437H121V422H151V437Z" fill="white"/>
<path d="M106 332.001H166V287.001H106V332.001ZM121 302.001H151V317.001H121V302.001Z" fill="white"/>
<path d="M241 287.001H181V332.001H241V287.001ZM226 317.001H196V302.001H226V317.001Z" fill="white"/>
<path d="M106 173.501H315.999V68.501H218.5V83.501H300.999V158.501H121V83.501H203.5V68.501H106V173.501Z" fill="white"/>
<path d="M241 347.001H181V392.001H241V347.001ZM226 377.001H196V362.001H226V377.001Z" fill="white"/>
<path d="M121 30H300.999V45H121V30Z" fill="white"/>
<path d="M465.999 399.501V249.502C465.999 237.096 455.906 227.002 443.499 227.002H375.998V482H443.499C455.905 482 465.999 471.907 465.999 459.5V414.5H450.999V459.5C450.999 463.635 447.635 467 443.499 467H390.998V242.002H443.499C447.634 242.002 450.999 245.366 450.999 249.502V399.501H465.999Z" fill="white"/>
</svg>
