<svg width="512" height="512" viewBox="0 0 512 512" fill="none" xmlns="http://www.w3.org/2000/svg">
<path d="M46.001 75H31.001V512H271V497H46.001V75Z" fill="white"/>
<path d="M46.001 15H390.999V113.501H405.999V0H31.001V60H46.001V15Z" fill="white"/>
<path d="M390.999 437H330.999V497H286V512H341.605L405.999 447.606V405.999H390.999V437ZM380.393 452L345.999 486.394V452H380.393Z" fill="white"/>
<path d="M390.999 158.5H405.999V173.5H390.999V158.5Z" fill="white"/>
<path d="M465.999 368.5C465.999 372.636 462.635 376 458.5 376H308.499C304.363 376 300.999 372.636 300.999 368.5V248.5H285.999V368.5C285.999 380.906 296.093 391 308.499 391H458.5C470.906 391 480.999 380.906 480.999 368.5V331H465.999V368.5Z" fill="white"/>
<path d="M450.999 188.5V151C450.999 138.594 440.905 128.5 428.499 128.5H338.499C326.093 128.5 316 138.594 316 151V188.5H285.999V233.5H300.999V203.5H316V217H331V203.5H375.999V188.5H331V151C331 146.864 334.364 143.5 338.499 143.5H428.499C432.635 143.5 435.999 146.864 435.999 151V188.5H391V203.5H435.999V217H450.999V203.5H465.999V316H480.999V188.5H450.999Z" fill="white"/>
<path d="M61 467H106V482H61V467Z" fill="white"/>
<path d="M361 60H376V105H361V60Z" fill="white"/>
<path d="M121.001 467H136.001V482H121.001V467Z" fill="white"/>
<path d="M345.999 346H360.999V361H345.999V346Z" fill="white"/>
<path d="M436 232H451V247H436V232Z" fill="white"/>
<path d="M436 262H451V307H436V262Z" fill="white"/>
<path d="M361 30H376V45H361V30Z" fill="white"/>
<path d="M315.999 346H330.999V361H315.999V346Z" fill="white"/>
<path d="M164.027 395.658H232.127V410.658H164.027V395.658Z" fill="white"/>
<path d="M164.027 305.66H232.127V320.66H164.027V305.66Z" fill="white"/>
<path d="M164.027 95.6621H337.726V110.662H164.027V95.6621Z" fill="white"/>
<path d="M164.027 125.662H232.127V140.662H164.027V125.662Z" fill="white"/>
<path d="M181 45H256V60H181V45Z" fill="white"/>
<path d="M164.027 215.661H232.127V230.661H164.027V215.661Z" fill="white"/>
<path d="M164.027 365.659H271V380.659H164.027V365.659Z" fill="white"/>
<path d="M164.027 185.661H271V200.661H164.027V185.661Z" fill="white"/>
<path d="M164.027 275.66H271V290.66H164.027V275.66Z" fill="white"/>
<path d="M375.999 252.25V282.25H345.999V297.25H375.999V327.25H390.999V297.25H421V282.25H390.999V252.25H375.999Z" fill="white"/>
<path d="M131.229 268.536L104.714 295.053L88.803 279.143L78.197 289.75L104.714 316.266L141.837 279.143L131.229 268.536Z" fill="white"/>
<path d="M131.229 358.535L104.714 385.052L88.803 369.142L78.197 379.749L104.714 406.265L141.837 369.142L131.229 358.535Z" fill="white"/>
<path d="M131.229 88.5391L104.714 115.055L88.803 99.1461L78.197 109.752L104.714 136.268L141.837 99.1451L131.229 88.5391Z" fill="white"/>
<path d="M131.229 178.538L104.714 205.054L88.803 189.144L78.197 199.75L104.714 226.267L141.837 189.144L131.229 178.538Z" fill="white"/>
</svg>
