<svg width="512" height="512" viewBox="0 0 512 512" fill="none" xmlns="http://www.w3.org/2000/svg">
<g clip-path="url(#clip0)">
<path d="M511.5 64.8904H0V387.154H511.5V64.8904ZM496.511 372.165H14.989V79.8794H496.511V372.165Z" fill="white"/>
<path d="M512 417.132H339.711C336.617 408.41 328.287 402.143 318.517 402.143C308.753 402.143 300.426 408.402 297.328 417.115L0.395706 416.321L0.354736 431.31L297.317 432.104C300.407 440.836 308.741 447.11 318.518 447.11C328.288 447.11 336.618 440.844 339.712 432.121H512.001V417.132H512ZM318.517 432.121C314.384 432.121 311.022 428.76 311.022 424.627C311.022 420.494 314.384 417.132 318.517 417.132C322.65 417.132 326.011 420.494 326.011 424.627C326.011 428.76 322.65 432.121 318.517 432.121Z" fill="white"/>
<path d="M218.256 276.568C220.039 277.501 221.976 277.962 223.907 277.962C226.343 277.962 228.766 277.228 230.852 275.78L285.161 238.065C288.515 235.735 290.47 231.907 290.391 227.824C290.313 223.741 288.211 219.991 284.77 217.792L230.461 183.095C226.71 180.699 221.953 180.538 218.048 182.677C214.144 184.816 211.719 188.91 211.719 193.361V265.773C211.72 270.323 214.225 274.459 218.256 276.568ZM226.709 198.484L273.152 228.156L226.709 260.407V198.484Z" fill="white"/>
<path d="M114.291 334.693H39.3462V349.682H114.291V334.693Z" fill="white"/>
<path d="M474.028 102.363H459.039V117.352H474.028V102.363Z" fill="white"/>
<path d="M444.05 102.363H429.061V117.352H444.05V102.363Z" fill="white"/>
<path d="M414.072 102.363H399.083V117.352H414.072V102.363Z" fill="white"/>
</g>
<defs>
<clipPath id="clip0">
<rect width="512" height="512" fill="white"/>
</clipPath>
</defs>
</svg>
