<svg width="512" height="512" viewBox="0 0 512 512" fill="none" xmlns="http://www.w3.org/2000/svg">
<g clip-path="url(#clip0)">
<path d="M478.312 281.439C465.679 270.493 451.295 264.963 436.912 263.82V248.772H421.869V264.193C401.614 266.775 382.617 277.588 369.991 293.633L277.86 250.571C276.124 243.024 270.597 236.912 263.395 234.358V203.47H248.352V234.358C241.15 236.912 235.624 243.024 233.888 250.571L143.13 292.99C130.881 276.766 112.192 265.663 90.897 263.528V248.771H75.8538V263.538C60.0324 265.127 45.1116 271.695 33.2114 282.45L43.2984 293.611C54.2989 283.668 68.5318 278.193 83.3754 278.193C116.347 278.193 143.171 305.018 143.171 337.989C143.171 356.445 134.763 372.972 121.58 383.949V348.879L97.8369 342.919C105.55 338.261 110.718 329.799 110.718 320.15C110.718 305.495 98.7947 293.572 84.1396 293.572C69.4835 293.572 57.5603 305.495 57.5603 320.15C57.5603 329.782 62.7101 338.232 70.4012 342.895L46.3551 348.862V384.896C32.4963 373.937 23.5777 356.991 23.5777 337.99C23.5777 326.161 27.0246 314.727 33.5444 304.924L21.0184 296.592C12.8519 308.872 8.53455 323.187 8.53455 337.99C8.53455 379.257 42.1079 412.83 83.3744 412.83C124.64 412.83 158.213 379.257 158.213 337.99C158.213 326.521 155.613 315.651 150.982 305.926L235.951 266.212C238.588 271.156 243.01 275.007 248.351 276.901V361.696C210.603 365.48 181.033 397.429 181.033 436.157C181.033 456.181 188.798 475.133 202.9 489.524C217.1 504.018 235.914 512.001 255.873 512.001C275.831 512.001 294.645 504.019 308.846 489.524C322.947 475.133 330.713 456.181 330.713 436.157C330.713 397.429 301.143 365.48 263.394 361.696V276.901C268.736 275.007 273.157 271.156 275.794 266.212L361.865 306.442C355.147 319.974 352.537 335.92 356.063 353.1L370.799 350.076C364.508 319.415 383.834 288.171 414.105 280.17C443.609 272.373 474.884 288.839 485.47 317.355C494.321 341.201 486.38 368.012 467.581 383.882V348.88L443.837 342.92C451.549 338.262 456.718 329.8 456.718 320.151C456.718 305.496 444.795 293.573 430.14 293.573C415.484 293.573 403.561 305.496 403.561 320.151C403.561 329.783 408.71 338.233 416.402 342.896L392.356 348.863V384.706C385.097 379.061 379.054 371.723 375.017 362.945L361.35 369.231C373.531 395.716 400.233 412.829 429.375 412.829C497.213 412.83 529.515 325.802 478.312 281.439ZM84.1396 308.616C90.4999 308.616 95.6747 313.791 95.6747 320.151C95.6747 326.511 90.4999 331.686 84.1396 331.686C77.7784 331.686 72.6035 326.511 72.6035 320.151C72.6035 313.791 77.7784 308.616 84.1396 308.616ZM61.3983 393.585V360.629L84.1286 354.988L106.536 360.612V393.116C99.4085 396.121 91.583 397.786 83.3744 397.786C75.6161 397.787 68.2059 396.286 61.3983 393.585ZM233.898 492.685V458.796L256.628 453.155L279.036 458.779V492.207C271.909 495.264 264.082 496.956 255.874 496.956C248.115 496.957 240.705 495.43 233.898 492.685ZM256.639 429.853C250.279 429.853 245.104 424.678 245.104 418.318C245.104 411.958 250.279 406.783 256.639 406.783C262.999 406.783 268.174 411.958 268.174 418.318C268.174 424.678 262.998 429.853 256.639 429.853ZM315.67 436.156C315.67 454.922 307.262 471.725 294.079 482.886V447.045L270.336 441.084C278.048 436.427 283.217 427.965 283.217 418.316C283.217 403.661 271.294 391.738 256.639 391.738C241.984 391.738 230.061 403.661 230.061 418.316C230.061 427.948 235.21 436.398 242.9 441.06L218.854 447.027V483.849C204.996 472.704 196.077 455.474 196.077 436.155C196.077 403.184 222.902 376.359 255.874 376.359C288.845 376.359 315.67 403.185 315.67 436.156ZM255.874 263.152C251.726 263.152 248.352 259.778 248.352 255.63C248.352 251.482 251.726 248.108 255.874 248.108C260.022 248.108 263.395 251.482 263.395 255.63C263.395 259.778 260.022 263.152 255.874 263.152ZM430.141 308.616C436.501 308.616 441.676 313.791 441.676 320.151C441.676 326.511 436.501 331.686 430.141 331.686C423.78 331.686 418.605 326.511 418.605 320.151C418.605 313.791 423.781 308.616 430.141 308.616ZM407.401 393.292V360.629L430.131 354.988L452.539 360.612V393.111C437.81 399.297 421.579 398.913 407.401 393.292Z" fill="white"/>
<path d="M135.528 67.532H150.571V82.5752H135.528V67.532Z" fill="white"/>
<path d="M105.776 67.532H120.485V82.5752H105.776V67.532Z" fill="white"/>
<path d="M75.8528 68.0864H90.896V83.1296H75.8528V68.0864Z" fill="white"/>
<path d="M75.8528 98.1729H90.896V113.55H75.8528V98.1729Z" fill="white"/>
<path d="M75.8528 128.259H90.896V143.302H75.8528V128.259Z" fill="white"/>
<path d="M75.8528 158.347H90.896V173.39H75.8528V158.347Z" fill="white"/>
<path d="M75.8528 188.432H90.896V203.475H75.8528V188.432Z" fill="white"/>
<path d="M75.8528 218.519H90.896V233.896H75.8528V218.519Z" fill="white"/>
<path d="M248.352 149.296V188.928H263.395V149.296C298.596 145.766 326.686 117.747 330.314 82.5751H347.152V67.5319H330.352C328.451 47.9898 318.973 29.967 303.685 17.2606L294.069 28.8288C307.797 40.2385 315.67 57.0097 315.67 74.8389C315.67 93.2949 307.262 109.82 294.079 120.798V85.7281L270.336 79.768C278.048 75.1106 283.217 66.6484 283.217 56.9997C283.217 42.3446 271.294 30.4213 256.639 30.4213C241.984 30.4213 230.061 42.3446 230.061 56.9997C230.061 66.6313 235.21 75.0816 242.901 79.7439L218.854 85.7111V121.745C204.996 110.784 196.077 93.8384 196.077 74.8379C196.077 41.8662 222.902 15.0412 255.874 15.0412C265.175 15.0412 274.085 17.1151 282.353 21.2069L289.024 7.72418C278.664 2.59946 267.51 0 255.874 0C217.072 0 185.08 29.6832 181.396 67.5319H165.615V82.5751H181.433C185.061 117.748 213.151 145.766 248.352 149.296ZM256.639 45.4645C262.999 45.4645 268.174 50.6394 268.174 56.9997C268.174 63.3599 262.999 68.5348 256.639 68.5348C250.279 68.5348 245.104 63.3599 245.104 56.9997C245.104 50.6394 250.279 45.4645 256.639 45.4645ZM233.898 97.4789L256.628 91.8377L279.036 97.4628V129.965C271.909 132.971 264.082 134.636 255.874 134.636C248.115 134.636 240.705 133.134 233.898 130.434V97.4789Z" fill="white"/>
<path d="M362.195 67.532H377.238V82.5752H362.195V67.532Z" fill="white"/>
<path d="M392.281 67.532H406.989V82.5752H392.281V67.532Z" fill="white"/>
<path d="M421.869 68.0864H436.913V83.1296H421.869V68.0864Z" fill="white"/>
<path d="M421.869 98.1729H436.913V113.55H421.869V98.1729Z" fill="white"/>
<path d="M421.869 128.259H436.913V143.302H421.869V128.259Z" fill="white"/>
<path d="M421.869 158.347H436.913V173.39H421.869V158.347Z" fill="white"/>
<path d="M421.869 188.432H436.913V203.475H421.869V188.432Z" fill="white"/>
<path d="M421.869 218.519H436.913V233.896H421.869V218.519Z" fill="white"/>
</g>
<defs>
<clipPath id="clip0">
<rect width="512" height="512" fill="white"/>
</clipPath>
</defs>
</svg>
