<svg width="512" height="512" viewBox="0 0 512 512" fill="none" xmlns="http://www.w3.org/2000/svg">
<g clip-path="url(#clip0)">
<path d="M481.578 120.177H421.481V44.728H89.6096V120.177H30.4223L0 150.215V436.899L30.3962 467.272H481.605L512.001 436.899V150.215L481.578 120.177ZM104.676 59.794H406.416V120.177H390.69V74.9153H119.732V120.177H104.676V59.794ZM375.624 120.177H134.798V89.9813H375.624V120.177ZM496.934 430.655L475.367 452.206H36.6335L15.066 430.655V256.309H90.614V301.701H135.83V256.309H300.664V241.243H135.83V211.124H90.614V241.243H15.066V156.513L36.6064 135.243H475.394L496.934 156.513V241.243H421.481V211.124H376.265V241.243H345.861V256.309H376.265V301.701H421.481V256.309H496.934V430.655ZM105.68 286.636V226.19H120.764V286.636H105.68ZM406.416 226.19V286.636H391.332V226.19H406.416Z" fill="white"/>
<path d="M315.73 241.243H330.796V256.309H315.73V241.243Z" fill="white"/>
<path d="M29.9963 301.045H45.0623V316.111H29.9963V301.045Z" fill="white"/>
<path d="M29.9963 331.177H45.0623V391.441H29.9963V331.177Z" fill="white"/>
</g>
<defs>
<clipPath id="clip0">
<rect width="512" height="512" fill="white"/>
</clipPath>
</defs>
</svg>
