<svg width="512" height="512" viewBox="0 0 512 512" fill="none" xmlns="http://www.w3.org/2000/svg">
<g clip-path="url(#clip0)">
<path d="M334.122 466.411L308.056 435.851H293.054V405.792H278.025V435.851H232.955V375.773H278.025V390.763H293.054V375.774H465.905V105.939H375.778V80.4891L325.848 30.5596H135.22V105.939H45.0921V375.774H217.926V435.851H202.942L176.875 466.411H0V481.44H512V466.411H334.122ZM450.876 120.968V135.451H435.851V150.481H450.876V316.056H375.778V300.567H435.86V270.528H420.831V285.538H316.118V231.691L368.475 265.908L420.831 231.691V255.428H435.86V210.289H375.778V150.481H390.763V135.451H375.778V120.968H450.876ZM330.25 56.2157L349.119 75.0845H330.25V56.2157ZM403.11 225.318L368.475 247.954L333.839 225.318H403.11ZM315.221 45.5889V90.1139H360.748V210.289H301.088V300.567H360.748V316.056H150.249V45.5889H315.221ZM135.22 316.056H60.1214V150.481H135.22V316.056ZM135.22 120.968V135.451H60.1214V120.968H135.22ZM60.1214 331.086H450.876V360.743H60.1214V331.086ZM209.877 450.88H301.12L314.367 466.411H196.63L209.877 450.88Z" fill="white"/>
<path d="M405.792 135.451H420.822V150.481H405.792V135.451Z" fill="white"/>
<path d="M75.1467 165.323H90.1761V180.352H75.1467V165.323Z" fill="white"/>
<path d="M75.1467 195.249H90.1761V225.439H75.1467V195.249Z" fill="white"/>
<path d="M301.089 59.95H165.824V105.705H301.089V59.95ZM286.06 90.676H180.853V74.9793H286.06V90.676Z" fill="white"/>
<path d="M165.323 120.736H180.352V135.765H165.323V120.736Z" fill="white"/>
<path d="M195.382 120.736H285.558V135.765H195.382V120.736Z" fill="white"/>
<path d="M165.323 150.794H180.352V165.824H165.323V150.794Z" fill="white"/>
<path d="M195.382 150.794H345.5V165.824H195.382V150.794Z" fill="white"/>
<path d="M165.323 180.854H180.352V195.883H165.323V180.854Z" fill="white"/>
<path d="M165.323 210.914H285.558V225.943H165.323V210.914Z" fill="white"/>
<path d="M286.058 300.567V240.973H255.499V256.002H271.028V285.538H180.769L180.437 256.002H240.47V240.973H165.238L165.908 300.567H286.058Z" fill="white"/>
<path d="M195.382 180.854H345.5V195.883H195.382V180.854Z" fill="white"/>
</g>
<defs>
<clipPath id="clip0">
<rect width="512" height="512" fill="white"/>
</clipPath>
</defs>
</svg>
