<svg width="512" height="512" viewBox="0 0 512 512" fill="none" xmlns="http://www.w3.org/2000/svg">
<g clip-path="url(#clip0)">
<path d="M334.122 466.915L308.055 436.355H293.054V406.296H278.025V436.355H232.955V376.277H278.025V391.266H293.054V376.277H465.905V106.442H357.486L330.417 60.454H285.695C285.695 60.3879 285.7 60.3228 285.7 60.2567C285.7 43.6041 272.153 30.0557 255.499 30.0557C238.845 30.0557 225.298 43.6031 225.298 60.2567C225.298 60.3228 225.303 60.3879 225.303 60.454H180.665L154.598 106.442H45.0921V376.277H217.926V436.355H202.942L176.875 466.915H0V481.944H512V466.915H334.122ZM255.499 45.085C263.864 45.085 270.671 51.8903 270.671 60.2567C270.671 68.622 263.865 75.4273 255.499 75.4273C247.133 75.4273 240.327 68.622 240.327 60.2567C240.327 51.8913 247.134 45.085 255.499 45.085ZM189.422 75.4834H229.434C234.682 84.4309 244.397 90.4566 255.499 90.4566C266.601 90.4566 276.316 84.4309 281.564 75.4834H321.825L340.047 106.442H171.875L189.422 75.4834ZM450.877 121.471V135.954H435.851V150.984H450.876V316.559H300.564V286.971L259.77 260.419C261.522 255.937 262.491 251.081 262.491 246.005V206.554C271.432 200.838 277.353 190.993 277.353 179.821V166.315L188.691 166.188C171.645 166.188 157.777 179.698 157.777 196.304V217.075C153.78 231.847 162.24 247.759 177.41 251.872L182.033 260.563L135.243 286.631V316.559H60.1214V150.984H390.763V135.954H60.1214V121.471H450.877ZM244.528 196.756V196.758L184.537 196.765C180.502 196.962 174.777 198.249 172.806 199.697C172.806 186.616 179.93 181.218 188.679 181.218L262.253 181.324C261.452 189.96 253.808 196.756 244.528 196.756ZM185.186 211.786H247.461V246.006C247.461 272.623 209.705 280.577 197.503 257.643L192.419 248.088L192.423 237.837H184.905C164.07 234.961 169.581 211.786 185.186 211.786ZM190.27 273.179C198.016 281.576 209.09 286.531 221.024 286.531C233.212 286.531 244.189 281.362 251.783 273.152L285.535 295.121V316.559H150.273V295.462L190.27 273.179ZM60.1214 331.59H450.876V361.247H60.1214V331.59ZM209.877 451.385H301.12L314.367 466.915H196.63L209.877 451.385Z" fill="white"/>
<path d="M405.792 135.955H420.822V150.984H405.792V135.955Z" fill="white"/>
<path d="M75.1467 165.826H90.1761V180.855H75.1467V165.826Z" fill="white"/>
<path d="M75.1467 195.753H90.1761V225.943H75.1467V195.753Z" fill="white"/>
<path d="M376.406 200.391C362.138 200.391 350.467 211.703 349.88 225.83H316.117V301.07H435.591V225.83H402.932C402.345 211.704 390.674 200.391 376.406 200.391ZM376.406 215.421C382.76 215.421 387.93 220.591 387.93 226.945C387.93 233.3 382.76 238.47 376.406 238.47C370.052 238.47 364.881 233.3 364.881 226.945C364.881 220.591 370.052 215.421 376.406 215.421ZM390.763 286.041H360.704V266.978L376.336 261.927L390.763 266.876V286.041ZM331.147 240.859H353.801C356.216 244.77 359.616 248.009 363.654 250.23L345.675 256.041V286.041H331.147V240.859ZM420.561 286.041H405.792V256.143L388.925 250.357C393.065 248.134 396.55 244.845 399.012 240.859H420.562V286.041H420.561Z" fill="white"/>
</g>
<defs>
<clipPath id="clip0">
<rect width="512" height="512" fill="white"/>
</clipPath>
</defs>
</svg>
