<svg width="512" height="512" viewBox="0 0 512 512" fill="none" xmlns="http://www.w3.org/2000/svg">
<g clip-path="url(#clip0)">
<path d="M67.6733 150.839H82.7415V166.41H67.6733V150.839Z" fill="white"/>
<path d="M127.276 226.021H173.15V180.147H127.276V226.021ZM142.344 195.215H158.082V210.953H142.344V195.215Z" fill="white"/>
<path d="M187.715 180.147H232.92V195.215H187.715V180.147Z" fill="white"/>
<path d="M187.715 210.953H202.783V226.021H187.715V210.953Z" fill="white"/>
<path d="M218.359 210.953H308.262V226.021H218.359V210.953Z" fill="white"/>
<path d="M127.276 301.698H173.15V255.823H127.276V301.698ZM142.344 270.891H158.082V286.63H142.344V270.891Z" fill="white"/>
<path d="M187.715 255.823H232.92V270.891H187.715V255.823Z" fill="white"/>
<path d="M187.715 286.63H202.783V301.698H187.715V286.63Z" fill="white"/>
<path d="M218.359 286.63H308.262V301.698H218.359V286.63Z" fill="white"/>
<path d="M127.276 377.374H173.15V331.5H127.276V377.374ZM142.344 346.568H158.082V362.306H142.344V346.568Z" fill="white"/>
<path d="M187.715 331.5H232.92V346.568H187.715V331.5Z" fill="white"/>
<path d="M187.715 362.306H202.783V377.374H187.715V362.306Z" fill="white"/>
<path d="M218.359 362.306H308.262V377.374H218.359V362.306Z" fill="white"/>
<path d="M429.259 376.862H444.327V391.93H429.259V376.862Z" fill="white"/>
<path d="M143.064 0V30.8053H111.973V76.0108H94.1863L67.6733 102.524V136.274H82.7415V108.765L100.428 91.08H158.081V105.477H97.4751V467.78H281.245L338.23 410.794V105.477H278.629V91.079H335.375L353.976 108.863V496.932H82.7415V180.976H67.6733V511.999H369.044V467.779H414.241V436.974H444.326V407.674H429.258V421.906H414.241V30.8053H158.133V15.0682H429.259V361.794H444.327V0L143.064 0ZM285.658 442.058V415.208H312.507L285.658 442.058ZM323.161 120.545V400.14H270.59V452.712H112.543V120.545H158.082V136.283H278.629V120.545H323.161ZM173.149 121.215V75.6753H263.559V121.215H173.149ZM399.173 452.712H369.044V102.424L341.42 76.0108H278.628V60.6072H158.081V76.0108H127.041V45.8735H399.173V452.712Z" fill="white"/>
</g>
<defs>
<clipPath id="clip0">
<rect width="512" height="512" fill="white"/>
</clipPath>
</defs>
</svg>
