<svg width="512" height="512" viewBox="0 0 512 512" fill="none" xmlns="http://www.w3.org/2000/svg">
<path d="M466.519 451.004V45.9961H406.017V135.506H316.519V90.9961H196.518V45.9961H46.519V75.4971H61.519V60.9961H181.518V390.997H61.519V120.497H46.519V451.004H0V466.004H512V451.004H466.519ZM421.017 60.9961H451.519V451.004H421.017V60.9961ZM406.017 451.004H316.519V405.997H406.017V451.004ZM406.017 150.506V390.997H316.519V150.506H406.017ZM301.519 105.996V451.004H196.518V105.996H301.519ZM61.519 405.997H181.518V451.004H61.519V405.997Z" fill="white"/>
<path d="M46.519 90.4971H61.519V105.497H46.519V90.4971Z" fill="white"/>
<path d="M121.644 360.997C138.255 360.997 151.769 347.483 151.769 330.872C151.769 314.261 138.255 300.747 121.644 300.747C105.033 300.747 91.519 314.261 91.519 330.872C91.519 347.483 105.032 360.997 121.644 360.997ZM121.644 315.747C129.984 315.747 136.769 322.532 136.769 330.872C136.769 339.212 129.984 345.997 121.644 345.997C113.304 345.997 106.519 339.212 106.519 330.872C106.519 322.532 113.304 315.747 121.644 315.747Z" fill="white"/>
<path d="M151.519 75.988H91.519V240.998H151.519V75.988ZM136.519 225.998H106.519V90.988H136.519V225.998Z" fill="white"/>
<path d="M271.014 270.501H226.52V435.511H271.014V270.501ZM256.014 420.511H241.52V285.501H256.014V420.511Z" fill="white"/>
<path d="M76.0181 420.338H91.0181V435.338H76.0181V420.338Z" fill="white"/>
<path d="M106.018 420.338H166.018V435.338H106.018V420.338Z" fill="white"/>
<path d="M361.018 300.747C344.407 300.747 330.893 314.261 330.893 330.872C330.893 347.483 344.407 360.997 361.018 360.997C377.629 360.997 391.143 347.483 391.143 330.872C391.143 314.261 377.629 300.747 361.018 300.747ZM361.018 345.997C352.678 345.997 345.893 339.212 345.893 330.872C345.893 322.532 352.678 315.747 361.018 315.747C369.358 315.747 376.143 322.532 376.143 330.872C376.143 339.212 369.357 345.997 361.018 345.997Z" fill="white"/>
<path d="M391.018 165.498H331.018V240.998H391.018V165.498ZM376.018 225.998H346.018V180.498H376.018V225.998Z" fill="white"/>
<path d="M241.519 120.497H256.519V135.497H241.519V120.497Z" fill="white"/>
<path d="M241.519 150.993H256.519V225.497H241.519V150.993Z" fill="white"/>
<path d="M211.519 135.745H226.519V150.745H211.519V135.745Z" fill="white"/>
<path d="M211.519 166.241H226.519V240.745H211.519V166.241Z" fill="white"/>
<path d="M271.519 135.745H286.519V150.745H271.519V135.745Z" fill="white"/>
<path d="M271.519 166.241H286.519V240.745H271.519V166.241Z" fill="white"/>
</svg>
