<svg width="512" height="512" viewBox="0 0 512 512" fill="none" xmlns="http://www.w3.org/2000/svg">
<g clip-path="url(#clip0)">
<path d="M31.5484 162.653C31.5484 81.522 97.5548 15.5156 178.686 15.5156C259.818 15.5156 325.823 81.522 325.823 162.653C325.823 191.517 317.471 219.459 301.67 243.458L314.628 251.99C332.103 225.451 341.339 194.559 341.339 162.653C341.338 72.9657 268.372 0 178.686 0C88.9995 0 16.0328 72.9657 16.0328 162.653C16.0328 201.775 30.1251 239.585 55.7134 269.116C81.04 298.346 115.936 317.638 153.972 323.439L156.311 308.101C85.1847 297.254 31.5484 234.725 31.5484 162.653Z" fill="white"/>
<path d="M170.928 30.4995H186.444V46.0151H170.928V30.4995Z" fill="white"/>
<path d="M295.053 154.624H310.568V170.14H295.053V154.624Z" fill="white"/>
<path d="M46.8033 154.624H62.3189V170.14H46.8033V154.624Z" fill="white"/>
<path d="M79.9289 74.6199L90.8984 63.6504L101.868 74.6199L90.8984 85.5894L79.9289 74.6199Z" fill="white"/>
<path d="M79.9149 250.122L90.8844 239.153L101.854 250.122L90.8844 261.092L79.9149 250.122Z" fill="white"/>
<path d="M255.45 74.6333L266.419 63.6638L277.389 74.6333L266.419 85.6028L255.45 74.6333Z" fill="white"/>
<path d="M114.08 238.024L168.263 183.84C184.069 191.646 201.914 179.615 202.304 162.565C202.429 157.069 202.304 67.6811 202.304 61.7024H155.067V153.237C155.067 159.81 154.444 166.693 157.361 172.799L103.108 227.052L114.08 238.024ZM186.788 77.218V140.466C181.6 138.565 175.771 138.565 170.583 140.466V77.218H186.788ZM178.686 154.55C189.113 154.55 189.114 170.755 178.686 170.755C168.267 170.755 168.244 154.55 178.686 154.55Z" fill="white"/>
<path d="M170.928 263.75V512H495.967V263.75H170.928ZM186.444 496.484V325.812H418.151V310.296H186.444V279.266H480.452V310.296H464.698V325.812H480.452V496.484H186.444Z" fill="white"/>
<path d="M433.666 310.296H449.182V325.812H433.666V310.296Z" fill="white"/>
<path d="M201.171 480.623H465.626V340.638H201.171V480.623ZM216.687 418.388H263.923V465.108H216.687V418.388ZM341.338 402.873V356.153H387.703V402.873H341.338ZM387.703 418.388V465.108H341.338V418.388H387.703ZM325.822 402.873H279.439V356.153H325.822V402.873ZM325.822 418.388V465.108H279.439V418.388H325.822ZM403.218 465.108V418.388H450.11V465.108H403.218ZM450.11 402.873H403.218V356.153H450.11V402.873ZM263.923 356.153V402.873H216.687V356.153H263.923Z" fill="white"/>
</g>
<defs>
<clipPath id="clip0">
<rect width="512" height="512" fill="white"/>
</clipPath>
</defs>
</svg>
