<svg width="512" height="512" viewBox="0 0 512 512" fill="none" xmlns="http://www.w3.org/2000/svg">
<g clip-path="url(#clip0)">
<path d="M450.893 181.534H465.983V196.624H450.893V181.534Z" fill="white"/>
<path d="M443.349 67.7832H389.69V22.6343C389.69 10.1543 379.536 0 367.056 0H344.572H270.592H68.6514C56.1713 0 46.017 10.1543 46.017 22.6343V421.581C46.017 434.062 56.1713 444.216 68.6514 444.216H122.31V489.366C122.31 501.846 132.464 512 144.944 512H443.35C455.83 512 465.984 501.846 465.984 489.366V226.803V211.713H450.894V226.803V489.366C450.894 493.526 447.51 496.91 443.35 496.91H187.697V444.216H367.056C379.536 444.216 389.69 434.062 389.69 421.581V82.8727H443.349C447.509 82.8727 450.893 86.2568 450.893 90.4175V165.467V166.446H465.983V165.467V90.4175C465.983 77.9374 455.83 67.7832 443.349 67.7832ZM329.483 15.0895V98.5246L307.582 88.0505L285.682 98.5246V15.0895H329.483ZM172.607 496.91H144.943C140.782 496.91 137.398 493.526 137.398 489.366V444.216H172.607V496.91ZM374.601 421.581C374.601 425.742 371.217 429.126 367.056 429.126H111.405V135.686H96.3155V429.126H68.6514C64.4907 429.126 61.1066 425.742 61.1066 421.581V22.6343C61.1066 18.4736 64.4907 15.0895 68.6514 15.0895H96.3155V90.4175H111.405V15.0895H270.593V122.47L307.583 104.777L344.574 122.47V15.0895H367.058C371.219 15.0895 374.603 18.4736 374.603 22.6343V67.7832V421.581H374.601Z" fill="white"/>
<path d="M96.3155 105.507H111.405V120.597H96.3155V105.507Z" fill="white"/>
<path d="M239.985 153.211C196.449 153.211 161.028 188.631 161.028 232.168C161.028 250.948 167.631 268.21 178.621 281.778V282.001H178.797C193.287 299.76 215.331 311.124 239.985 311.124C283.521 311.124 318.941 275.704 318.941 232.168C318.941 188.631 283.521 153.211 239.985 153.211ZM229.192 238.745V266.912H204.043V238.745H229.192ZM204.043 223.655V198.303L229.192 198.079V223.655H204.043ZM244.281 238.745H272.449V266.912H244.281V238.745ZM244.281 223.655V197.946L272.449 197.695V223.654H244.281V223.655ZM272.449 182.605L244.281 182.855V168.461C254.513 169.144 264.09 172.242 272.449 177.198V182.605ZM229.192 182.989L204.043 183.212V179.407C211.459 174.339 219.993 170.804 229.192 169.231V182.989ZM185.768 198.466L188.953 198.438V223.655H176.702C177.927 214.508 181.086 205.969 185.768 198.466ZM188.953 238.745V266.912H186.437C181.051 258.639 177.515 249.056 176.455 238.745H188.953ZM204.043 282.001H229.192V295.104C219.993 293.531 211.459 289.996 204.043 284.929V282.001ZM244.281 282.001H272.449V287.138C264.09 292.093 254.513 295.191 244.281 295.875V282.001ZM287.538 266.912V238.745H303.515C302.456 249.056 298.92 258.639 293.533 266.912H287.538ZM287.538 223.655V197.561L293.588 197.508C298.605 205.24 301.992 214.116 303.268 223.655H287.538Z" fill="white"/>
<path d="M416.981 399.109H432.071V414.199H416.981V399.109Z" fill="white"/>
<path d="M416.981 429.288H432.071V444.378H416.981V429.288Z" fill="white"/>
<path d="M416.981 459.467H432.071V474.557H416.981V459.467Z" fill="white"/>
</g>
<defs>
<clipPath id="clip0">
<rect width="512" height="512" fill="white"/>
</clipPath>
</defs>
</svg>
