<svg width="512" height="512" viewBox="0 0 512 512" fill="none" xmlns="http://www.w3.org/2000/svg">
<g clip-path="url(#clip0)">
<path d="M489.35 66.1691H475.634V43.3601C475.634 39.2181 472.277 35.8601 468.134 35.8601H286.305C273.915 35.8601 262.899 41.8511 256 51.0881C249.101 41.8511 238.085 35.8601 225.695 35.8601H43.866C39.724 35.8601 36.366 39.2181 36.366 43.3601V66.1691H22.65C10.161 66.1691 0 76.3301 0 88.8191V368.289C0 372.431 3.358 375.789 7.5 375.789C11.642 375.789 15 372.431 15 368.289V88.8191C15 84.6011 18.432 81.1691 22.65 81.1691H36.366V416.11C36.366 420.252 39.724 423.61 43.866 423.61H468.134C472.277 423.61 475.634 420.252 475.634 416.11V81.1691H489.35C493.569 81.1691 497 84.6011 497 88.8191V119.419C497 123.561 500.357 126.919 504.5 126.919C508.643 126.919 512 123.561 512 119.419V88.8191C512 76.3301 501.839 66.1691 489.35 66.1691ZM286.305 50.8601H460.634V368.203H286.305C277.745 368.203 269.844 371.067 263.5 375.88V73.6651C263.5 61.0901 273.73 50.8601 286.305 50.8601ZM225.695 50.8601C238.27 50.8601 248.5 61.0901 248.5 73.6651V375.881C242.156 371.067 234.255 368.204 225.695 368.204H51.366V50.8601H225.695ZM51.366 383.204H225.696C238.271 383.204 248.501 393.434 248.501 406.009V408.611H51.366V383.204ZM263.5 408.61V406.008C263.5 393.433 273.73 383.203 286.305 383.203H460.634V408.61H263.5Z" fill="white"/>
<path d="M504.5 146.919C500.357 146.919 497 150.277 497 154.419V437.319C497 441.543 493.568 444.979 489.35 444.979H302.01C295.906 444.979 290.327 448.065 287.081 453.243L282.906 459.92C282.436 460.672 281.595 461.139 280.71 461.139H231.29C230.404 461.139 229.562 460.672 229.089 459.913L224.914 453.235C221.672 448.066 216.093 444.979 209.99 444.979H22.65C18.432 444.979 15 441.542 15 437.319V403.289C15 399.147 11.642 395.789 7.5 395.789C3.358 395.789 0 399.147 0 403.289V437.319C0 449.814 10.161 459.979 22.65 459.979H209.99C210.897 459.979 211.725 460.437 212.2 461.195L216.366 467.859C219.6 473.044 225.179 476.14 231.29 476.14H280.71C286.82 476.14 292.398 473.044 295.629 467.867L299.795 461.204C300.275 460.437 301.104 459.98 302.01 459.98H489.35C501.839 459.98 512 449.814 512 437.32V154.42C512 150.277 508.643 146.919 504.5 146.919Z" fill="white"/>
<path d="M76.19 237.74H223.67C227.812 237.74 231.17 234.382 231.17 230.24V137C231.17 132.858 227.812 129.5 223.67 129.5C219.528 129.5 216.17 132.858 216.17 137V222.74H83.69V83.1892H216.17V102C216.17 106.142 219.528 109.5 223.67 109.5C227.812 109.5 231.17 106.142 231.17 102V75.6902C231.17 71.5482 227.812 68.1902 223.67 68.1902H76.19C72.048 68.1902 68.69 71.5482 68.69 75.6902V230.24C68.69 234.382 72.048 237.74 76.19 237.74Z" fill="white"/>
<path d="M223.675 255.065H76.191C72.049 255.065 68.691 258.423 68.691 262.565C68.691 266.707 72.049 270.065 76.191 270.065H223.675C227.817 270.065 231.175 266.707 231.175 262.565C231.175 258.423 227.817 255.065 223.675 255.065Z" fill="white"/>
<path d="M223.675 287.391H76.191C72.049 287.391 68.691 290.749 68.691 294.891C68.691 299.033 72.049 302.391 76.191 302.391H223.675C227.817 302.391 231.175 299.033 231.175 294.891C231.175 290.749 227.817 287.391 223.675 287.391Z" fill="white"/>
<path d="M152.963 319.716H76.191C72.049 319.716 68.691 323.074 68.691 327.216C68.691 331.358 72.049 334.716 76.191 334.716H152.963C157.105 334.716 160.463 331.358 160.463 327.216C160.463 323.074 157.105 319.716 152.963 319.716Z" fill="white"/>
<path d="M319.641 83.186H435.809C439.952 83.186 443.309 79.828 443.309 75.686C443.309 71.544 439.952 68.186 435.809 68.186H319.641C315.498 68.186 312.141 71.544 312.141 75.686C312.141 79.828 315.498 83.186 319.641 83.186Z" fill="white"/>
<path d="M288.325 119.119H435.808C439.951 119.119 443.308 115.761 443.308 111.619C443.308 107.477 439.951 104.119 435.808 104.119H288.325C284.182 104.119 280.825 107.477 280.825 111.619C280.825 115.761 284.183 119.119 288.325 119.119Z" fill="white"/>
<path d="M288.325 155.051H435.808C439.951 155.051 443.308 151.693 443.308 147.551C443.308 143.409 439.951 140.051 435.808 140.051H288.325C284.182 140.051 280.825 143.409 280.825 147.551C280.825 151.693 284.183 155.051 288.325 155.051Z" fill="white"/>
<path d="M288.325 190.984H435.808C439.951 190.984 443.308 187.626 443.308 183.484C443.308 179.342 439.951 175.984 435.808 175.984H288.325C284.182 175.984 280.825 179.342 280.825 183.484C280.825 187.626 284.183 190.984 288.325 190.984Z" fill="white"/>
<path d="M288.325 226.917H435.808C439.951 226.917 443.308 223.559 443.308 219.417C443.308 215.275 439.951 211.917 435.808 211.917H288.325C284.182 211.917 280.825 215.275 280.825 219.417C280.825 223.559 284.183 226.917 288.325 226.917Z" fill="white"/>
<path d="M288.325 262.85H435.808C439.951 262.85 443.308 259.492 443.308 255.35C443.308 251.208 439.951 247.85 435.808 247.85H288.325C284.182 247.85 280.825 251.208 280.825 255.35C280.825 259.492 284.183 262.85 288.325 262.85Z" fill="white"/>
<path d="M288.325 298.783H435.808C439.951 298.783 443.308 295.425 443.308 291.283C443.308 287.141 439.951 283.783 435.808 283.783H288.325C284.182 283.783 280.825 287.141 280.825 291.283C280.825 295.425 284.183 298.783 288.325 298.783Z" fill="white"/>
<path d="M288.325 334.716H365.097C369.24 334.716 372.597 331.358 372.597 327.216C372.597 323.074 369.24 319.716 365.097 319.716H288.325C284.182 319.716 280.825 323.074 280.825 327.216C280.825 331.358 284.183 334.716 288.325 334.716Z" fill="white"/>
</g>
<defs>
<clipPath id="clip0">
<rect width="512" height="512" fill="white"/>
</clipPath>
</defs>
</svg>
