<svg width="512" height="512" viewBox="0 0 512 512" fill="none" xmlns="http://www.w3.org/2000/svg">
<path d="M452.48 123.7C448.338 123.7 444.98 127.057 444.98 131.2V338.4H384.72V335.8C384.72 326.096 376.824 318.2 367.12 318.2H321.08C316.938 318.2 313.58 321.557 313.58 325.7C313.58 329.843 316.938 333.2 321.08 333.2H367.12C368.554 333.2 369.72 334.366 369.72 335.8V356.01C369.72 357.444 368.553 358.611 367.12 358.611H144.88C143.446 358.611 142.28 357.444 142.28 356.01V335.8C142.28 334.366 143.447 333.2 144.88 333.2H285.88C290.022 333.2 293.38 329.843 293.38 325.7C293.38 321.557 290.022 318.2 285.88 318.2H144.88C135.175 318.2 127.28 326.096 127.28 335.8V338.401H67.02V273.6C67.02 269.457 63.662 266.1 59.52 266.1C55.378 266.1 52.02 269.457 52.02 273.6V345.9C52.02 350.043 55.378 353.4 59.52 353.4H127.28V356.009C127.28 365.714 135.176 373.61 144.88 373.61H164.856L136.546 502.895C136.06 505.114 136.606 507.432 138.029 509.202C139.453 510.971 141.601 512 143.872 512H178.217C181.741 512 184.79 509.547 185.543 506.104L214.557 373.61H231.327V504.5C231.327 508.643 234.685 512 238.827 512H273.173C277.315 512 280.673 508.643 280.673 504.5V373.61H297.443L326.457 506.104C327.21 509.546 330.259 512 333.783 512H368.128C370.399 512 372.547 510.971 373.971 509.202C375.394 507.432 375.94 505.114 375.454 502.895L347.144 373.61H367.12C376.825 373.61 384.72 365.714 384.72 356.009V353.4H452.48C456.622 353.4 459.98 350.043 459.98 345.9V131.2C459.98 127.058 456.622 123.7 452.48 123.7ZM172.182 497H153.192L180.211 373.61H199.201L172.182 497ZM265.673 497H246.327V373.61H265.673V497ZM358.808 497H339.818L312.799 373.61H331.789L358.808 497Z" fill="white"/>
<path d="M452.48 60.61H344.313V58.007C344.313 48.302 336.417 40.405 326.711 40.405H283.703V7.5C283.703 3.357 280.345 0 276.203 0H235.797C231.655 0 228.297 3.357 228.297 7.5V40.406H185.289C175.583 40.406 167.687 48.302 167.687 58.008V60.611H59.52C55.378 60.611 52.02 63.968 52.02 68.111V238.4C52.02 242.543 55.378 245.9 59.52 245.9C63.662 245.9 67.02 242.543 67.02 238.4V75.61H167.687V78.211C167.687 87.917 175.583 95.814 185.289 95.814H326.712C336.418 95.814 344.314 87.918 344.314 78.211V75.61H444.98V96C444.98 100.143 448.338 103.5 452.48 103.5C456.622 103.5 459.98 100.143 459.98 96V68.11C459.98 63.968 456.622 60.61 452.48 60.61ZM243.297 15H268.703V40.406H243.297V15ZM329.313 78.211C329.313 79.646 328.146 80.814 326.711 80.814H185.289C183.854 80.814 182.687 79.646 182.687 78.211V58.008C182.687 56.573 183.854 55.406 185.289 55.406H326.712C328.147 55.406 329.314 56.573 329.314 58.008V78.211H329.313Z" fill="white"/>
</svg>
