<svg width="512" height="512" viewBox="0 0 512 512" fill="none" xmlns="http://www.w3.org/2000/svg">
<g clip-path="url(#clip0)">
<path d="M431.769 487.071C427.626 487.071 424.269 490.429 424.269 494.571V497H364.517V451.972C364.517 447.83 361.16 444.472 357.017 444.472C352.874 444.472 349.517 447.83 349.517 451.972V497H161.474V451.972C161.474 447.83 158.117 444.472 153.974 444.472C149.831 444.472 146.474 447.83 146.474 451.972V497H87.731V494.571C87.731 490.429 84.374 487.071 80.231 487.071C76.088 487.071 72.731 490.429 72.731 494.571V504.5C72.731 508.642 76.088 512 80.231 512H431.768C435.911 512 439.268 508.642 439.268 504.5V494.571C439.269 490.429 435.911 487.071 431.769 487.071Z" fill="white"/>
<path d="M415.938 382.376C400.674 361.788 379.644 346.97 355.122 339.522L302.897 323.661V294.017C331.766 278.304 351.935 248.557 354.196 214.001H363.078C378.353 214.001 390.781 201.573 390.781 186.298V172.156C390.781 160.966 384.109 151.312 374.538 146.944C373.292 112.734 356.138 82.517 330.265 63.485C324.602 27.063 293.253 0 256 0C218.772 0 187.44 27.025 181.746 63.409C177.783 66.323 173.99 69.518 170.402 72.993C167.427 75.875 167.352 80.623 170.234 83.598C173.114 86.573 177.862 86.65 180.839 83.766C198.373 66.78 221.478 57.426 245.898 57.426H266.101C315.485 57.426 356.044 95.904 359.389 144.452H346.915C342.772 144.452 339.415 147.81 339.415 151.952V174.031L333.585 161.671C329.223 152.423 319.824 146.472 309.608 146.472C309.536 146.472 309.462 146.473 309.39 146.473C306.743 146.473 304.036 145.38 301.763 143.39L297.152 139.355C302.881 132.48 310.964 119.964 313.9 101.618C314.554 97.528 311.769 93.682 307.679 93.027C303.584 92.37 299.742 95.158 299.087 99.248C295.423 122.149 281.87 133.759 281.555 134.025C281.525 134.049 281.5 134.077 281.471 134.101C281.437 134.13 281.4 134.155 281.366 134.185C272.311 142.108 260.698 146.472 248.666 146.472H226.576C204.754 146.472 184.428 157.649 172.585 175.57V151.952C172.585 147.81 169.228 144.452 165.085 144.452H152.609C153.423 132.405 156.507 120.822 161.823 109.943C163.641 106.221 162.099 101.73 158.378 99.911C154.653 98.093 150.165 99.636 148.347 103.357C141.655 117.053 138.005 131.699 137.462 146.944C127.892 151.312 121.22 160.966 121.22 172.155V186.297C121.22 201.572 133.648 214 148.923 214H157.805C160.066 248.555 180.235 278.302 209.104 294.016V323.66L156.879 339.521C132.357 346.969 111.326 361.787 96.0629 382.375C80.7999 402.962 72.7319 427.391 72.7319 453.02V459.499C72.7319 463.641 76.0889 466.999 80.2319 466.999C84.3749 466.999 87.7319 463.641 87.7319 459.499V453.02C87.7319 413.091 110.046 377.783 144.742 360.451C150.799 381.915 163.092 401.465 179.975 416.233C201.04 434.662 228.039 444.81 256 444.81C283.961 444.81 310.96 434.662 332.025 416.235C348.909 401.468 361.202 381.917 367.258 360.453C401.954 377.784 424.268 413.092 424.268 453.022V459.501C424.268 463.643 427.625 467.001 431.768 467.001C435.911 467.001 439.268 463.643 439.268 459.501V453.022C439.269 427.393 431.2 402.964 415.938 382.376ZM245.898 42.427C229.897 42.427 214.383 45.89 200.243 52.453C209.235 30.285 230.948 15 256 15C281.08 15 302.811 30.319 311.784 52.526C297.891 46.051 282.413 42.427 266.101 42.427H245.898ZM354.415 159.453H363.077C370.082 159.453 375.78 165.152 375.78 172.157V186.299C375.78 193.303 370.082 199.002 363.077 199.002H354.415V159.453ZM136.22 186.299V172.157C136.22 165.152 141.918 159.453 148.923 159.453H157.585V199.002H148.923C141.918 199.002 136.22 193.303 136.22 186.299ZM172.625 209.107L181.663 189.947C189.822 172.65 207.451 161.474 226.576 161.474H248.666C262.116 161.474 275.165 157.286 286.048 149.573L291.887 154.681C296.898 159.065 303.108 161.474 309.391 161.474C309.464 161.474 309.535 161.474 309.61 161.473C314.045 161.473 318.126 164.057 320.019 168.072L339.375 209.106C338.519 254.366 301.461 290.926 256 290.926C210.539 290.926 173.481 254.366 172.625 209.107ZM218.783 336.398C221.943 335.439 224.103 332.524 224.103 329.222V300.618C234.111 304.056 244.84 305.926 255.999 305.926C267.158 305.926 277.888 304.055 287.895 300.618V329.222C287.895 332.525 290.055 335.439 293.215 336.398L322.343 345.244C315.038 375.432 287.572 397.484 255.999 397.484C224.426 397.484 196.959 375.432 189.655 345.244L218.783 336.398ZM322.15 404.944C303.819 420.979 280.327 429.809 256 429.809C231.673 429.809 208.181 420.978 189.85 404.944C174.708 391.699 163.826 374.034 158.736 354.69C159.568 354.415 160.396 354.131 161.239 353.875L175.299 349.605C184.517 385.993 217.786 412.484 256.001 412.484C294.216 412.484 327.484 385.993 336.703 349.605L350.763 353.875C351.606 354.131 352.433 354.415 353.265 354.69C348.175 374.034 337.293 391.699 322.15 404.944Z" fill="white"/>
</g>
<defs>
<clipPath id="clip0">
<rect width="512" height="512" fill="white"/>
</clipPath>
</defs>
</svg>
