<svg width="512" height="512" viewBox="0 0 512 512" fill="none" xmlns="http://www.w3.org/2000/svg">
<g clip-path="url(#clip0)">
<path d="M431.77 455.33C435.912 455.33 439.27 451.973 439.27 447.83V427.28C439.27 401.651 431.202 377.221 415.937 356.632C400.672 336.042 379.642 321.222 355.118 313.774L302.896 297.919V268.274C331.629 252.635 351.745 223.095 354.163 188.749H363.076C378.351 188.749 390.779 176.321 390.779 161.046V146.903C390.779 134.227 382.218 123.519 370.576 120.24V92.354C370.577 41.43 329.147 0 278.224 0H233.777C182.853 0 141.423 41.43 141.423 92.354V120.24C129.781 123.52 121.22 134.227 121.22 146.903V161.046C121.22 176.321 133.648 188.749 148.923 188.749H157.836C160.255 223.095 180.371 252.635 209.103 268.274V297.919L156.88 313.774C132.358 321.222 111.327 336.043 96.062 356.632C80.798 377.222 72.729 401.652 72.729 427.28V447.83C72.729 451.973 76.087 455.33 80.229 455.33C84.371 455.33 87.729 451.973 87.729 447.83V427.28C87.729 401.056 97.361 376.831 113.793 358.373L136.253 388.107C143.17 397.272 146.979 408.641 146.979 420.12V447.83C146.979 451.973 150.337 455.33 154.479 455.33C158.621 455.33 161.979 451.973 161.979 447.83V420.12C161.979 405.401 157.095 390.823 148.224 379.069L124.638 347.843C129.414 343.853 134.592 340.287 140.105 337.176L250.221 470.21C251.646 471.932 253.764 472.928 255.998 472.928C258.232 472.928 260.351 471.932 261.775 470.21L371.891 337.176C377.405 340.288 382.583 343.853 387.359 347.844L363.776 379.072C354.904 390.819 350.019 405.395 350.019 420.117V497H161.98V483.03C161.98 478.887 158.622 475.53 154.48 475.53C150.338 475.53 146.98 478.887 146.98 483.03V497H87.73V483.03C87.73 478.887 84.372 475.53 80.23 475.53C76.088 475.53 72.73 478.887 72.73 483.03V504.5C72.73 508.643 76.088 512 80.23 512H431.77C435.912 512 439.27 508.643 439.27 504.5V483.03C439.27 478.887 435.912 475.53 431.77 475.53C427.628 475.53 424.27 478.887 424.27 483.03V497H365.021V420.118C365.021 408.639 368.831 397.272 375.748 388.112L398.206 358.373C414.638 376.831 424.27 401.056 424.27 427.279V447.829C424.27 451.973 427.628 455.33 431.77 455.33ZM256 350.374C278.497 350.374 297.338 334.447 301.858 313.28L322.443 319.53L256 399.803L189.557 319.53L210.142 313.28C214.662 334.448 233.503 350.374 256 350.374ZM375.78 146.902V161.045C375.78 168.05 370.081 173.748 363.077 173.748H354.414V134.199H363.077C370.082 134.199 375.78 139.897 375.78 146.902ZM233.776 15H278.223C320.876 15 355.577 49.7 355.577 92.354V119.2H346.914C342.772 119.2 339.414 122.557 339.414 126.7V144.11L321.501 101.566C319.98 97.954 315.935 96.121 312.217 97.361C311.925 97.459 282.757 107.078 255.999 107.078C229.316 107.078 200.071 97.458 199.781 97.361C196.063 96.122 192.018 97.954 190.497 101.566L172.584 144.11V126.7C172.584 122.557 169.226 119.2 165.084 119.2H156.421V92.354C156.423 49.7 191.124 15 233.776 15ZM136.22 161.045V146.902C136.22 139.897 141.919 134.199 148.923 134.199H157.586V173.748H148.923C141.918 173.748 136.22 168.05 136.22 161.045ZM172.609 182.706L201.702 113.61C212.473 116.663 234.598 122.078 255.999 122.078C277.4 122.078 299.525 116.663 310.296 113.61L339.389 182.706C338.882 228.268 301.679 265.183 255.998 265.183C210.317 265.183 173.116 228.268 172.609 182.706ZM256 280.183C267.159 280.183 277.889 278.312 287.896 274.874V303.478C287.896 321.066 273.587 335.374 256 335.374C238.413 335.374 224.104 321.065 224.104 303.478V274.874C234.111 278.312 244.841 280.183 256 280.183ZM256 453.666L154.121 330.583C156.451 329.691 158.819 328.862 161.239 328.127L173.995 324.254L250.222 416.348C251.647 418.07 253.765 419.066 256 419.066C258.235 419.066 260.353 418.07 261.778 416.348L338.005 324.254L350.761 328.127C353.181 328.862 355.55 329.691 357.88 330.583L256 453.666Z" fill="white"/>
</g>
<defs>
<clipPath id="clip0">
<rect width="512" height="512" fill="white"/>
</clipPath>
</defs>
</svg>
