<svg width="512" height="512" viewBox="0 0 512 512" fill="none" xmlns="http://www.w3.org/2000/svg">
<g clip-path="url(#clip0)">
<path d="M494.398 167.687H489.511L443.69 44.3219C439.678 33.5209 429.242 26.2639 417.72 26.2639H94.279C82.758 26.2639 72.321 33.5209 68.309 44.3219L22.489 167.687H17.602C7.896 167.687 0 175.583 0 185.289V199.431C0 209.137 7.896 217.033 17.602 217.033H20.204V381.423C20.204 385.565 23.561 388.923 27.704 388.923C31.847 388.923 35.204 385.565 35.204 381.423V217.033H152.964C159.554 217.033 165.75 214.467 170.411 209.806L256 124.215L341.591 209.806C346.251 214.466 352.447 217.032 359.037 217.032H476.797V236.916C476.797 241.058 480.154 244.416 484.297 244.416C488.44 244.416 491.797 241.058 491.797 236.916V217.032H494.399C504.104 217.032 512.001 209.136 512.001 199.43V185.288C512 175.583 504.104 167.687 494.398 167.687ZM82.37 49.5439C84.21 44.5909 88.996 41.2639 94.279 41.2639H417.72C423.003 41.2639 427.789 44.5919 429.629 49.5439L473.51 167.687H369.257L273.446 71.8769C268.786 67.2169 262.591 64.6499 256 64.6499C249.409 64.6499 243.214 67.2159 238.554 71.8769L142.743 167.687H38.489L82.37 49.5439ZM497 199.431C497 200.866 495.833 202.033 494.398 202.033H359.037C356.453 202.033 354.023 201.027 352.197 199.2L261.303 108.306C259.896 106.899 257.989 106.109 255.999 106.109C254.009 106.109 252.103 106.899 250.695 108.306L159.802 199.2C157.975 201.027 155.545 202.033 152.961 202.033H17.602C16.167 202.033 15 200.866 15 199.431V185.289C15 183.854 16.167 182.687 17.602 182.687H145.85C147.839 182.687 149.746 181.897 151.154 180.49L249.162 82.4829C250.988 80.6559 253.417 79.6499 256.001 79.6499C258.585 79.6499 261.014 80.6559 262.84 82.4829L360.848 180.49C362.255 181.897 364.162 182.687 366.152 182.687H494.4C495.835 182.687 497.002 183.854 497.002 185.289V199.431H497Z" fill="white"/>
<path d="M450.962 425.126C455.105 425.126 458.462 421.768 458.462 417.626V284.285C458.462 280.143 455.105 276.785 450.962 276.785H349.945C345.802 276.785 342.445 280.143 342.445 284.285V417.626C342.445 421.768 345.802 425.126 349.945 425.126H450.962ZM443.462 377.801H407.953V342.293H443.462V377.801ZM392.953 377.801H357.445V342.293H392.953V377.801ZM443.462 410.126H357.445V392.801H443.462V410.126ZM443.462 327.292H407.953V291.784H443.462V327.292ZM392.953 291.785V327.293H357.445V291.785H392.953Z" fill="white"/>
<path d="M162.055 425.126C166.198 425.126 169.555 421.768 169.555 417.626V284.285C169.555 280.143 166.198 276.785 162.055 276.785H61.0381C56.8951 276.785 53.5381 280.143 53.5381 284.285V417.626C53.5381 421.768 56.8951 425.126 61.0381 425.126H162.055ZM154.555 377.801H119.047V342.293H154.555V377.801ZM104.047 377.801H68.5381V342.293H104.047V377.801ZM154.555 410.126H68.5381V392.801H154.555V410.126ZM154.555 327.292H119.047V291.784H154.555V327.292ZM104.047 291.785V327.293H68.5381V291.785H104.047Z" fill="white"/>
<path d="M280.244 309.11H231.756C227.613 309.11 224.256 312.468 224.256 316.61V348.935C224.256 353.077 227.613 356.435 231.756 356.435H280.244C284.387 356.435 287.744 353.077 287.744 348.935V316.61C287.744 312.468 284.387 309.11 280.244 309.11ZM272.744 341.435H239.256V324.11H272.744V341.435Z" fill="white"/>
<path d="M295.825 214.583C295.825 192.624 277.96 174.758 256 174.758C234.04 174.758 216.175 192.624 216.175 214.583C216.175 236.542 234.04 254.409 256 254.409C277.96 254.409 295.825 236.543 295.825 214.583ZM231.175 214.583C231.175 200.895 242.312 189.758 256 189.758C269.688 189.758 280.825 200.895 280.825 214.583C280.825 228.271 269.688 239.409 256 239.409C242.312 239.409 231.175 228.272 231.175 214.583Z" fill="white"/>
<path d="M504.5 436.39H491.797V272C491.797 267.858 488.44 264.5 484.297 264.5C480.154 264.5 476.797 267.858 476.797 272V436.39H320.069V284.285C320.069 280.143 316.712 276.785 312.569 276.785H199.431C195.288 276.785 191.931 280.143 191.931 284.285V436.39H35.203V416.506C35.203 412.364 31.846 409.006 27.703 409.006C23.56 409.006 20.203 412.364 20.203 416.506V436.39H7.5C3.357 436.39 0 439.748 0 443.89V478.236C0 482.378 3.357 485.736 7.5 485.736H504.5C508.643 485.736 512 482.378 512 478.236V443.89C512 439.748 508.643 436.39 504.5 436.39ZM206.931 381.689H217.615C221.758 381.689 225.115 378.331 225.115 374.189C225.115 370.047 221.758 366.689 217.615 366.689H206.931V291.785H305.07V436.39H206.931V381.689ZM497 470.736H15V451.39H497V470.736Z" fill="white"/>
</g>
<defs>
<clipPath id="clip0">
<rect width="512" height="512" fill="white"/>
</clipPath>
</defs>
</svg>
