<svg width="512" height="512" viewBox="0 0 512 512" fill="none" xmlns="http://www.w3.org/2000/svg">
<path d="M504.5 12.1201H7.5C3.357 12.1201 0 15.4781 0 19.6201V401.46C0 405.602 3.357 408.96 7.5 408.96H197.992V444.47H175.19C174.026 444.47 172.878 444.741 171.837 445.261L151.627 455.361C149.085 456.631 147.48 459.229 147.48 462.07V492.38C147.48 496.522 150.837 499.88 154.98 499.88H195.04C199.183 499.88 202.54 496.522 202.54 492.38C202.54 488.238 199.183 484.88 195.04 484.88H162.48V466.706L176.959 459.47H335.039L349.518 466.706V484.88H230.04C225.897 484.88 222.54 488.238 222.54 492.38C222.54 496.522 225.897 499.88 230.04 499.88H357.02C361.163 499.88 364.52 496.522 364.52 492.38V462.07C364.52 459.229 362.915 456.631 360.373 455.361L340.163 445.261C339.122 444.741 337.975 444.47 336.81 444.47H314.008V408.96H397.42C401.563 408.96 404.92 405.602 404.92 401.46C404.92 397.318 401.563 393.96 397.42 393.96H15V27.1201H497V393.96H432.42C428.277 393.96 424.92 397.318 424.92 401.46C424.92 405.602 428.277 408.96 432.42 408.96H504.5C508.643 408.96 512 405.602 512 401.46V19.6201C512 15.4781 508.643 12.1201 504.5 12.1201ZM299.008 444.47H212.992V408.96H299.008V444.47Z" fill="white"/>
<path d="M477.65 336.81V53.9702C477.65 49.8282 474.293 46.4702 470.15 46.4702H114.32C110.177 46.4702 106.82 49.8282 106.82 53.9702C106.82 58.1122 110.177 61.4702 114.32 61.4702H462.65V329.31H49.3501V61.4702H79.3201C83.4631 61.4702 86.8201 58.1122 86.8201 53.9702C86.8201 49.8282 83.4631 46.4702 79.3201 46.4702H41.8501C37.7071 46.4702 34.3501 49.8282 34.3501 53.9702V336.81C34.3501 340.952 37.7071 344.31 41.8501 344.31H470.15C474.293 344.31 477.65 340.952 477.65 336.81Z" fill="white"/>
<path d="M470.154 361.638H449.951C445.808 361.638 442.451 364.996 442.451 369.138C442.451 373.28 445.808 376.638 449.951 376.638H470.154C474.297 376.638 477.654 373.28 477.654 369.138C477.654 364.996 474.297 361.638 470.154 361.638Z" fill="white"/>
<path d="M417.626 361.638H397.423C393.28 361.638 389.923 364.996 389.923 369.138C389.923 373.28 393.28 376.638 397.423 376.638H417.626C421.769 376.638 425.126 373.28 425.126 369.138C425.126 364.996 421.769 361.638 417.626 361.638Z" fill="white"/>
<path d="M344.895 361.638C340.752 361.638 337.395 364.996 337.395 369.138C337.395 373.28 340.752 376.638 344.895 376.638H365.098C369.241 376.638 372.598 373.28 372.598 369.138C372.598 364.996 369.241 361.638 365.098 361.638H344.895Z" fill="white"/>
</svg>
