<svg width="480" height="480" viewBox="0 0 480 480" fill="none" xmlns="http://www.w3.org/2000/svg">
<g clip-path="url(#clip0)">
<path d="M456 72H24.0001C10.7451 72 0.000104902 82.745 0.000104902 96V384C-0.0148951 389.043 1.5791 393.959 4.5521 398.032C9.05811 404.285 16.2931 407.993 24.0001 408H456C463.696 407.995 470.922 404.3 475.432 398.064C478.412 393.981 480.013 389.055 480 384V96C480 82.745 469.255 72 456 72ZM16.0001 379.416V124.608L180.92 252L16.0001 379.416ZM25.8801 392L194 262.112L225.336 286.304C233.975 292.972 246.025 292.972 254.664 286.304L286 262.112L454.12 392H25.8801ZM464 379.416L299.08 252L464 124.608V379.416ZM464 104.392L244.888 273.64C242.008 275.863 237.992 275.863 235.112 273.64L16.0001 104.392V96C16.0001 91.582 19.5821 88 24.0001 88H456C460.418 88 464 91.582 464 96V104.392Z" fill="white"/>
</g>
<defs>
<clipPath id="clip0">
<rect width="480" height="480" fill="white"/>
</clipPath>
</defs>
</svg>
