<svg width="483" height="483" viewBox="0 0 483 483" fill="none" xmlns="http://www.w3.org/2000/svg">
<g clip-path="url(#clip0)">
<path d="M444.772 69.204C444.706 69.138 444.639 69.071 444.573 69.005C394.593 19.135 313.65 19.224 263.78 69.204L241.116 91.868L218.46 69.212C194.55 45.087 161.962 31.56 127.996 31.66C94.0729 31.672 61.5419 45.144 37.5439 69.12C-12.4821 119.1 -12.5191 200.17 37.4599 250.196L235.46 448.196C236.96 449.696 238.994 450.54 241.116 450.54C243.238 450.54 245.272 449.696 246.772 448.196L444.772 250.196C494.675 200.185 494.675 119.215 444.772 69.204ZM433.46 238.884L241.116 431.228L48.7959 238.86C27.8449 217.875 16.0679 189.441 16.0439 159.788C15.9959 97.91 66.1179 47.709 127.996 47.66C157.724 47.574 186.244 59.419 207.164 80.54L235.484 108.86C238.608 111.983 243.672 111.983 246.796 108.86L275.132 80.532C296.045 59.428 324.55 47.596 354.26 47.684C383.913 47.707 412.347 59.485 433.332 80.436C477.122 124.154 477.179 195.094 433.46 238.884Z" fill="white"/>
</g>
<defs>
<clipPath id="clip0">
<rect width="482.199" height="482.199" fill="white"/>
</clipPath>
</defs>
</svg>
