<svg width="481" height="481" viewBox="0 0 481 481" fill="none" xmlns="http://www.w3.org/2000/svg">
<g clip-path="url(#clip0)">
<path d="M240.083 136.082C182.645 136.082 136.083 182.644 136.083 240.082C136.083 297.52 182.645 344.082 240.083 344.082C297.493 344.016 344.017 297.492 344.083 240.082C344.083 182.644 297.521 136.082 240.083 136.082ZM240.083 328.082C191.482 328.082 152.083 288.683 152.083 240.082C152.083 191.481 191.482 152.082 240.083 152.082C288.66 152.139 328.026 191.505 328.083 240.082C328.083 288.683 288.684 328.082 240.083 328.082Z" fill="white"/>
<path d="M479.883 228.754C479.371 216.806 470.097 207.081 458.187 206.002C446.101 205.04 434.654 200.182 425.565 192.157C402.381 171.687 400.181 136.298 420.651 113.114C428.483 104.074 428.405 90.63 420.467 81.682C414.579 74.95 408.308 68.563 401.683 62.554C392.715 54.51 379.198 54.282 369.963 62.018C360.887 69.636 349.632 74.184 337.812 75.009C306.915 77.165 280.12 53.867 277.963 22.97C277.104 10.944 267.541 1.37401 255.515 0.506009C246.609 -0.075991 237.677 -0.150991 228.763 0.282009C216.809 0.791009 207.079 10.07 206.003 21.986C205.039 34.064 200.183 45.503 192.166 54.587C171.7 77.775 136.311 79.981 113.123 59.514C104.078 51.681 90.628 51.767 81.683 59.714C74.953 65.593 68.571 71.859 62.571 78.482C54.542 87.455 54.31 100.959 62.027 110.202C69.662 119.287 74.217 130.561 75.037 142.4C77.175 173.289 53.868 200.064 22.979 202.202C10.949 203.058 1.37601 212.621 0.507007 224.65C-0.083993 233.556 -0.157993 242.488 0.283007 251.402C0.796007 263.357 10.077 273.087 21.995 274.162C34.07 275.128 45.507 279.983 54.589 287.999C77.776 308.466 79.982 343.854 59.515 367.042C51.691 376.089 51.773 389.531 59.707 398.482C65.59 405.214 71.859 411.598 78.483 417.602C87.469 425.654 101.006 425.882 110.259 418.138C119.343 410.508 130.613 405.957 142.448 405.137C173.342 402.998 200.12 426.308 202.259 457.202C203.116 469.21 212.653 478.771 224.659 479.658C229.747 479.994 234.867 480.162 239.971 480.162C243.803 480.162 247.627 480.082 251.403 479.882C263.354 479.374 273.083 470.099 274.163 458.186C275.125 446.1 279.983 434.653 288.008 425.564C308.478 402.38 343.867 400.18 367.051 420.65C376.093 428.48 389.537 428.398 398.483 420.458C405.214 414.574 411.598 408.305 417.603 401.682C425.658 392.706 425.887 379.173 418.139 369.93C410.5 360.839 405.944 349.558 405.129 337.711C403.003 306.821 426.321 280.056 457.211 277.93C469.217 277.073 478.776 267.535 479.659 255.53C480.25 246.616 480.324 237.676 479.883 228.754ZM463.691 254.45C463.422 258.522 460.157 261.752 456.083 261.978C440.875 263.036 426.394 268.889 414.721 278.696C384.241 304.303 380.292 349.77 405.899 380.25C408.524 383.353 408.463 387.915 405.755 390.946C400.174 397.107 394.238 402.938 387.979 408.41C385.096 411.06 380.698 411.172 377.683 408.674C365.986 398.34 351.248 392.086 335.688 390.855C296.047 387.72 261.37 417.313 258.235 456.954C257.803 460.85 254.554 463.826 250.635 463.914C242.337 464.332 234.021 464.263 225.731 463.706C221.656 463.445 218.417 460.183 218.187 456.106C215.521 418.3 184.086 388.986 146.187 388.962V388.946C129.248 388.964 112.861 394.972 99.923 405.906C96.827 408.565 92.235 408.503 89.211 405.762C83.05 400.183 77.222 394.247 71.755 387.986C69.101 385.101 68.988 380.699 71.491 377.682C81.827 365.988 88.083 351.252 89.317 335.693C92.461 296.053 62.875 261.37 23.235 258.226C19.335 257.788 16.354 254.541 16.251 250.618C15.844 242.325 15.914 234.015 16.459 225.73C16.772 221.67 20.02 218.456 24.083 218.186C39.286 217.127 53.761 211.276 65.431 201.475C95.914 175.872 99.87 130.405 74.267 99.922C71.6 96.826 71.661 92.226 74.411 89.202C79.99 83.049 85.923 77.225 92.179 71.762C95.059 69.098 99.467 68.982 102.483 71.49C114.177 81.826 128.913 88.082 144.471 89.316C184.111 92.46 218.794 62.874 221.939 23.234C222.417 19.357 225.643 16.402 229.547 16.266C237.84 15.848 246.15 15.917 254.435 16.474C258.494 16.779 261.712 20.021 261.987 24.082C263.044 39.297 268.901 53.785 278.714 65.46C304.325 95.93 349.788 99.869 380.259 74.258C383.362 71.646 387.911 71.704 390.947 74.394C397.11 79.985 402.943 85.928 408.419 92.194C411.031 95.09 411.14 99.459 408.675 102.482C398.339 114.176 392.083 128.912 390.849 144.47C387.705 184.11 417.291 218.793 456.931 221.937C460.825 222.375 463.8 225.619 463.899 229.537C464.306 237.839 464.236 246.156 463.691 254.45Z" fill="white"/>
</g>
<defs>
<clipPath id="clip0">
<rect width="480.166" height="480.166" fill="white"/>
</clipPath>
</defs>
</svg>
