<svg width="512" height="512" viewBox="0 0 512 512" fill="none" xmlns="http://www.w3.org/2000/svg">
<g clip-path="url(#clip0)">
<path d="M173.176 301.176C198.087 301.176 218.353 280.91 218.353 256C218.353 231.09 198.087 210.823 173.176 210.823C148.266 210.823 128 231.09 128 256C128 280.91 148.266 301.176 173.176 301.176ZM173.176 225.882C189.783 225.882 203.294 239.393 203.294 256C203.294 272.607 189.783 286.118 173.176 286.118C156.57 286.118 143.059 272.607 143.059 256C143.059 239.393 156.57 225.882 173.176 225.882Z" fill="white"/>
<path d="M125.26 160.167C118.86 153.767 110.351 150.243 101.302 150.243C92.2524 150.243 83.7431 153.768 77.3431 160.167C64.1335 173.377 64.1335 194.873 77.3431 208.083C83.7431 214.483 92.2524 218.007 101.302 218.007C110.351 218.007 118.86 214.482 125.26 208.083C138.47 194.872 138.47 173.377 125.26 160.167ZM114.611 197.435C111.056 200.991 106.329 202.949 101.301 202.949C96.2721 202.949 91.5456 200.991 87.9907 197.435C80.651 190.096 80.651 178.154 87.9907 170.814C91.5456 167.259 96.2721 165.301 101.301 165.301C106.329 165.301 111.056 167.259 114.611 170.814C121.95 178.154 121.95 190.096 114.611 197.435Z" fill="white"/>
<path d="M221.093 351.833C227.493 358.233 236.002 361.757 245.051 361.757C254.101 361.757 262.61 358.232 269.01 351.833C282.219 338.623 282.219 317.127 269.01 303.917C262.61 297.517 254.101 293.993 245.051 293.993C236.002 293.993 227.493 297.518 221.093 303.917C207.883 317.128 207.883 338.623 221.093 351.833ZM231.742 314.565C235.297 311.009 240.024 309.051 245.052 309.051C250.081 309.051 254.807 311.009 258.362 314.565C265.702 321.904 265.702 333.846 258.362 341.186C254.807 344.741 250.081 346.699 245.052 346.699C240.024 346.699 235.297 344.741 231.742 341.186C224.403 333.846 224.403 321.904 231.742 314.565Z" fill="white"/>
<path d="M245.052 218.007C254.103 218.007 262.611 214.482 269.011 208.083C282.22 194.872 282.22 173.377 269.011 160.167C262.611 153.767 254.102 150.243 245.052 150.243C236.003 150.243 227.494 153.768 221.094 160.167C207.884 173.377 207.884 194.873 221.094 208.083C227.493 214.483 236.002 218.007 245.052 218.007ZM231.742 170.814C235.297 167.259 240.024 165.301 245.052 165.301C250.081 165.301 254.807 167.259 258.362 170.814C265.702 178.154 265.702 190.096 258.362 197.435C254.807 200.991 250.081 202.949 245.052 202.949C240.024 202.949 235.297 200.991 231.742 197.435C224.403 190.096 224.403 178.154 231.742 170.814Z" fill="white"/>
<path d="M101.301 293.993C92.2503 293.993 83.7421 297.518 77.3421 303.917C64.1325 317.128 64.1325 338.623 77.3421 351.833C83.7421 358.233 92.2513 361.757 101.301 361.757C110.35 361.757 118.859 358.232 125.259 351.833C138.469 338.623 138.469 317.127 125.259 303.917C118.86 297.517 110.351 293.993 101.301 293.993ZM114.611 341.186C111.056 344.741 106.329 346.699 101.301 346.699C96.2721 346.699 91.5456 344.741 87.9907 341.186C80.651 333.846 80.651 321.904 87.9907 314.565C91.5456 311.009 96.2721 309.051 101.301 309.051C106.329 309.051 111.056 311.009 114.611 314.565C121.95 321.904 121.95 333.846 114.611 341.186Z" fill="white"/>
<path d="M180.706 248.471H165.647V263.529H180.706V248.471Z" fill="white"/>
<path d="M470.471 346.119C456.004 346.119 444.235 357.888 444.235 372.354V372.707C444.235 378.934 439.169 384.001 432.941 384.001C426.714 384.001 421.647 378.933 421.647 372.706C421.647 358.239 409.878 346.47 395.412 346.47H391.529V361.529H395.412C401.575 361.529 406.588 366.543 406.588 372.706C406.588 387.237 418.409 399.059 432.941 399.059C447.473 399.059 459.294 387.237 459.294 372.706V372.353C459.294 366.19 464.308 361.177 470.471 361.177C485.067 361.177 496.941 373.051 496.941 387.647C496.941 402.243 485.067 414.118 470.471 414.118H243.779C304.175 387.043 346.353 326.357 346.353 256C346.353 160.51 268.666 82.8235 173.176 82.8235C77.6865 82.8235 -1.52588e-05 160.51 -1.52588e-05 256C-1.52588e-05 351.49 77.6865 429.176 173.176 429.176H470.471C493.37 429.176 512 410.547 512 387.647C512 364.748 493.369 346.119 470.471 346.119ZM173.176 376.471C162.797 376.471 154.353 368.027 154.353 357.647C154.353 347.267 162.797 338.823 173.176 338.823C183.556 338.823 192 347.267 192 357.647C192 368.027 183.556 376.471 173.176 376.471ZM173.176 135.529C183.556 135.529 192 143.973 192 154.353C192 164.732 183.556 173.176 173.176 173.176C162.797 173.176 154.353 164.732 154.353 154.353C154.353 143.973 162.797 135.529 173.176 135.529ZM15.2425 263.529H38.5004C41.9348 278.598 55.4345 289.882 71.5294 289.882C90.2114 289.882 105.412 274.683 105.412 256C105.412 237.317 90.2114 222.118 71.5294 222.118C55.4355 222.118 41.9348 233.402 38.5004 248.471H15.2425C19.0685 167.263 84.4398 101.892 165.647 98.066V121.325C150.578 124.759 139.294 138.259 139.294 154.353C139.294 173.036 154.494 188.235 173.176 188.235C191.858 188.235 207.059 173.036 207.059 154.353C207.059 138.258 195.775 124.758 180.706 121.325V98.066C261.913 101.893 327.284 167.263 331.11 248.471H307.853C304.418 233.402 290.918 222.118 274.824 222.118C256.142 222.118 240.941 237.317 240.941 256C240.941 274.683 256.142 289.882 274.824 289.882C290.917 289.882 304.418 278.598 307.853 263.529H331.111C327.284 344.737 261.913 410.108 180.706 413.934V390.675C195.775 387.241 207.059 373.741 207.059 357.647C207.059 338.964 191.858 323.765 173.176 323.765C154.494 323.765 139.294 338.964 139.294 357.647C139.294 373.742 150.578 387.242 165.647 390.675V413.934C84.4398 410.108 19.0685 344.737 15.2425 263.529ZM52.7059 256C52.7059 245.62 61.1499 237.176 71.5294 237.176C81.9089 237.176 90.3529 245.62 90.3529 256C90.3529 266.38 81.9089 274.824 71.5294 274.824C61.1499 274.824 52.7059 266.38 52.7059 256ZM293.647 256C293.647 266.38 285.203 274.824 274.824 274.824C264.444 274.824 256 266.38 256 256C256 245.62 264.444 237.176 274.824 237.176C285.203 237.176 293.647 245.62 293.647 256Z" fill="white"/>
</g>
<defs>
<clipPath id="clip0">
<rect width="512" height="512" fill="white"/>
</clipPath>
</defs>
</svg>
