<svg width="512" height="512" viewBox="0 0 512 512" fill="none" xmlns="http://www.w3.org/2000/svg">
<path d="M504.5 92.659C508.642 92.659 512 89.301 512 85.159V38.559C512 34.417 508.642 31.059 504.5 31.059H301.73V7.50098C301.73 3.35898 298.372 0.000976562 294.23 0.000976562H217.77C213.628 0.000976562 210.27 3.35898 210.27 7.50098V31.058H7.5C3.358 31.058 0 34.416 0 38.558V85.158C0 89.3 3.358 92.658 7.5 92.658H15.53V146.468C15.53 150.61 18.888 153.968 23.03 153.968C27.172 153.968 30.53 150.61 30.53 146.468V92.658H409.56C413.702 92.658 417.06 89.3 417.06 85.158C417.06 81.016 413.702 77.658 409.56 77.658H15V46.058H497V77.658H442.24C438.098 77.658 434.74 81.016 434.74 85.158C434.74 89.3 438.098 92.658 442.24 92.658H481.47V341.688H256.81C252.668 341.688 249.31 345.046 249.31 349.188C249.31 353.33 252.668 356.688 256.81 356.688H497V372.748H15V356.688H224.13C228.272 356.688 231.63 353.33 231.63 349.188C231.63 345.046 228.272 341.688 224.13 341.688H30.53V179.158C30.53 175.016 27.172 171.658 23.03 171.658C18.888 171.658 15.53 175.016 15.53 179.158V341.688H7.5C3.358 341.688 0 345.046 0 349.188V380.248C0 384.39 3.358 387.748 7.5 387.748H154.794L124.499 502.582C123.906 504.832 124.39 507.229 125.81 509.072C127.23 510.915 129.425 511.995 131.751 511.995H169.981C173.386 511.995 176.364 509.701 177.233 506.408L208.537 387.748H229.385V504.495C229.385 508.637 232.743 511.995 236.885 511.995H275.115C279.257 511.995 282.615 508.637 282.615 504.495V387.749H303.462L334.768 506.412C335.637 509.704 338.615 511.999 342.02 511.999H380.25C382.577 511.999 384.771 510.919 386.191 509.076C387.611 507.233 388.095 504.835 387.502 502.586L357.205 387.749H504.5C508.642 387.749 512 384.391 512 380.249V349.189C512 345.047 508.642 341.689 504.5 341.689H496.47V92.659H504.5ZM225.27 15.001H286.73V31.058H225.27V15.001ZM164.203 496.996H141.486L170.307 387.749H193.024L164.203 496.996ZM267.615 496.996H244.385V387.749H267.615V496.996ZM370.515 496.999H347.798L318.977 387.749H341.693L370.515 496.999Z" fill="white"/>
<path d="M100.689 108.718C96.547 108.718 93.189 112.076 93.189 116.218V318.123C93.189 322.265 96.547 325.623 100.689 325.623H411.311C415.453 325.623 418.811 322.265 418.811 318.123C418.811 313.981 415.453 310.623 411.311 310.623H372.218V178.836C372.218 174.694 368.86 171.336 364.718 171.336H333.656C329.514 171.336 326.156 174.694 326.156 178.836V310.623H310.093V162.812C310.093 158.67 306.735 155.312 302.593 155.312H271.531C267.389 155.312 264.031 158.67 264.031 162.812V310.623H247.968V210.885C247.968 206.743 244.61 203.385 240.468 203.385H209.406C205.264 203.385 201.906 206.743 201.906 210.885V310.623H185.843V242.934C185.843 238.792 182.485 235.434 178.343 235.434H147.281C143.139 235.434 139.781 238.792 139.781 242.934V310.623H108.188V116.218C108.189 112.076 104.831 108.718 100.689 108.718ZM341.156 186.336H357.218V310.623H341.156V186.336ZM279.031 170.312H295.093V310.623H279.031V170.312ZM216.907 218.385H232.969V310.623H216.907V218.385ZM154.782 250.434H170.844V310.623H154.782V250.434Z" fill="white"/>
</svg>
