<svg width="512" height="512" viewBox="0 0 512 512" fill="none" xmlns="http://www.w3.org/2000/svg">
<path d="M504.5 31.07H422.84C418.697 31.07 415.34 34.428 415.34 38.57C415.34 42.712 418.697 46.07 422.84 46.07H497V77.64H15V46.07H390.16C394.303 46.07 397.66 42.712 397.66 38.57C397.66 34.428 394.303 31.07 390.16 31.07H302.926V7.50403C302.926 3.36203 299.569 0.00402832 295.426 0.00402832H216.574C212.432 0.00402832 209.074 3.36203 209.074 7.50403V31.07H7.5C3.358 31.07 0 34.428 0 38.57V85.14C0 89.282 3.358 92.64 7.5 92.64H31.06V426.84C31.06 430.982 34.418 434.34 38.56 434.34H99.88C104.022 434.34 107.38 430.982 107.38 426.84C107.38 422.698 104.022 419.34 99.88 419.34H46.06V92.66H465.94V286.25C465.94 290.392 469.297 293.75 473.44 293.75C477.583 293.75 480.94 290.392 480.94 286.25V92.64H504.5C508.643 92.64 512 89.282 512 85.14V38.57C512 34.428 508.643 31.07 504.5 31.07ZM224.074 15.004H287.926V31.066H224.074V15.004Z" fill="white"/>
<path d="M473.44 311.44C469.297 311.44 465.94 314.798 465.94 318.94V419.34H132.56C128.418 419.34 125.06 422.698 125.06 426.84C125.06 430.982 128.418 434.34 132.56 434.34H248.5V450.805C234.988 454.169 224.944 466.401 224.944 480.94C224.944 498.065 238.876 511.996 256 511.996C273.125 511.996 287.057 498.064 287.057 480.94C287.057 466.401 277.013 454.169 263.5 450.805V434.34H473.44C477.583 434.34 480.94 430.982 480.94 426.84V318.94C480.94 314.798 477.583 311.44 473.44 311.44ZM272.057 480.939C272.057 489.793 264.854 496.995 256 496.995C247.146 496.995 239.944 489.792 239.944 480.939C239.944 472.086 247.147 464.883 256 464.883C264.853 464.883 272.057 472.086 272.057 480.939Z" fill="white"/>
<path d="M287.062 170.313H318.124C322.267 170.313 325.624 166.955 325.624 162.813V131.75C325.624 127.608 322.267 124.25 318.124 124.25H287.062C282.919 124.25 279.562 127.608 279.562 131.75V162.813C279.562 166.956 282.92 170.313 287.062 170.313ZM294.562 139.251H310.624V155.314H294.562V139.251Z" fill="white"/>
<path d="M349.187 139.251H406.5C410.643 139.251 414 135.893 414 131.751C414 127.609 410.643 124.251 406.5 124.251H349.187C345.044 124.251 341.687 127.609 341.687 131.751C341.687 135.893 345.044 139.251 349.187 139.251Z" fill="white"/>
<path d="M349.187 170.313H426.843C430.986 170.313 434.343 166.955 434.343 162.813C434.343 158.671 430.986 155.313 426.843 155.313H349.187C345.044 155.313 341.687 158.671 341.687 162.813C341.687 166.955 345.044 170.313 349.187 170.313Z" fill="white"/>
<path d="M279.562 224.938C279.562 229.08 282.919 232.438 287.062 232.438H318.124C322.267 232.438 325.624 229.08 325.624 224.938V193.875C325.624 189.733 322.267 186.375 318.124 186.375H287.062C282.919 186.375 279.562 189.733 279.562 193.875V224.938ZM294.562 201.375H310.624V217.438H294.562V201.375Z" fill="white"/>
<path d="M349.187 201.375H406.5C410.643 201.375 414 198.017 414 193.875C414 189.733 410.643 186.375 406.5 186.375H349.187C345.044 186.375 341.687 189.733 341.687 193.875C341.687 198.017 345.044 201.375 349.187 201.375Z" fill="white"/>
<path d="M349.187 232.438H426.843C430.986 232.438 434.343 229.08 434.343 224.938C434.343 220.796 430.986 217.438 426.843 217.438H349.187C345.044 217.438 341.687 220.796 341.687 224.938C341.687 229.08 345.044 232.438 349.187 232.438Z" fill="white"/>
<path d="M162.813 294.562C209.768 294.562 247.968 256.361 247.968 209.407C247.968 162.452 209.767 124.251 162.813 124.251C115.858 124.251 77.657 162.452 77.657 209.407C77.658 256.361 115.858 294.562 162.813 294.562ZM232.563 201.907H170.314V139.657C203.018 143.149 229.07 169.202 232.563 201.907ZM155.313 139.657V209.407C155.313 213.549 158.671 216.907 162.813 216.907H232.562C228.806 252.076 198.962 279.562 162.813 279.562C124.129 279.562 92.657 248.09 92.657 209.407C92.658 173.257 120.144 143.413 155.313 139.657Z" fill="white"/>
<path d="M116.22 387.749C128.443 387.749 138.467 378.177 139.203 366.137L191.427 348.124C195.653 353.343 202.106 356.687 209.329 356.687C219.019 356.687 227.325 350.668 230.72 342.176L288.467 351.303C291.327 360.771 300.128 367.687 310.516 367.687C322.458 367.687 332.304 358.55 333.436 346.9L378.497 317.711C382.721 322.508 388.901 325.544 395.78 325.544C408.479 325.544 418.811 315.212 418.811 302.513C418.811 289.814 408.479 279.482 395.78 279.482C383.081 279.482 372.749 289.814 372.749 302.513C372.749 302.859 372.76 303.203 372.775 303.546L329.471 331.596C325.312 325.578 318.368 321.625 310.515 321.625C300.795 321.625 292.468 327.681 289.093 336.216L231.403 327.097C228.571 317.584 219.75 310.625 209.329 310.625C196.63 310.625 186.298 320.957 186.298 333.656C186.298 333.779 186.305 333.899 186.307 334.022L135.176 351.659C131.017 345.641 124.073 341.687 116.22 341.687C103.521 341.687 93.189 352.019 93.189 364.718C93.189 377.417 103.521 387.749 116.22 387.749ZM395.78 294.482C400.209 294.482 403.811 298.085 403.811 302.513C403.811 306.941 400.208 310.544 395.78 310.544C391.352 310.544 387.749 306.941 387.749 302.513C387.749 298.085 391.352 294.482 395.78 294.482ZM310.516 336.625C314.945 336.625 318.547 340.228 318.547 344.656C318.547 349.084 314.944 352.687 310.516 352.687C306.088 352.687 302.485 349.084 302.485 344.656C302.485 340.228 306.087 336.625 310.516 336.625ZM209.329 325.625C213.757 325.625 217.36 329.228 217.36 333.656C217.36 338.084 213.757 341.687 209.329 341.687C204.901 341.687 201.298 338.084 201.298 333.656C201.298 329.228 204.9 325.625 209.329 325.625ZM116.22 356.687C120.648 356.687 124.251 360.29 124.251 364.718C124.251 369.146 120.648 372.749 116.22 372.749C111.792 372.749 108.189 369.146 108.189 364.718C108.189 360.29 111.792 356.687 116.22 356.687Z" fill="white"/>
</svg>
