<svg width="512" height="512" viewBox="0 0 512 512" fill="none" xmlns="http://www.w3.org/2000/svg">
<g clip-path="url(#clip0)">
<path d="M470.455 398.289C466.31 398.191 462.869 401.447 462.759 405.588C461.636 448.012 459.868 480.895 459.071 494.454C438.997 495.129 376.761 497 304.35 497C231.954 497 169.706 495.129 149.629 494.454C149.262 488.234 148.691 477.955 148.075 464.599C164.294 465.022 182.854 465.411 202.914 465.666H203.011C207.109 465.666 210.456 462.371 210.509 458.261C210.562 454.119 207.247 450.719 203.105 450.666C149.669 449.986 106.936 448.352 90.94 447.677C90.575 440.06 89.955 426.343 89.278 408.069C116.864 409.083 154.11 410.069 194.718 410.069C277.989 410.069 347.124 405.926 347.813 405.885C351.859 405.639 354.958 402.223 354.834 398.171C354.834 398.156 354.833 398.142 354.833 398.128C355.007 393.334 356.22 358.421 356.22 316.57C356.22 271.714 354.866 234.829 354.852 234.462C354.708 230.606 351.664 227.489 347.812 227.254C347.123 227.212 277.988 223.069 194.717 223.069C183.068 223.069 171.041 223.15 158.97 223.31C154.828 223.365 151.515 226.767 151.57 230.909C151.625 235.051 154.989 238.352 159.169 238.309C171.173 238.149 183.133 238.069 194.716 238.069C262.429 238.069 320.723 240.822 340.085 241.847C340.47 254.496 341.218 283.323 341.218 316.568C341.218 349.818 340.448 378.649 340.051 391.291C320.658 392.318 262.394 395.067 194.716 395.067C127.044 395.067 68.778 392.317 49.381 391.291C48.984 378.653 48.214 349.831 48.214 316.568C48.214 283.32 48.962 254.493 49.347 241.846C61.331 241.209 88.222 239.909 122.857 239.019C126.998 238.913 130.268 235.47 130.162 231.328C130.056 227.187 126.589 223.936 122.472 224.023C109.008 224.369 96.705 224.777 85.978 225.184C86.163 126.038 89.802 42.157 90.939 18.29C110.746 17.455 171.55 15.153 243.211 14.998C247.353 14.989 250.704 11.624 250.695 7.482C250.688 3.347 247.333 0 243.198 0H243.181C155.598 0.189 84.14 3.574 83.428 3.608C79.584 3.793 76.503 6.857 76.299 10.7C76.247 11.68 71.181 108.114 70.979 225.794C52.745 226.583 41.811 227.242 41.623 227.253C37.772 227.487 34.727 230.605 34.583 234.461C34.569 234.828 33.215 271.713 33.215 316.569C33.215 357.796 34.393 392.291 34.594 397.893C34.588 397.985 34.583 398.078 34.58 398.171C34.457 402.223 37.576 405.639 41.622 405.885C41.909 405.902 54.096 406.633 74.245 407.478C75.333 437.034 76.288 455.075 76.298 455.268C76.503 459.111 79.583 462.176 83.427 462.36C83.736 462.375 102.772 463.279 133.039 464.179C134.114 487.67 135.067 502.054 135.077 502.21C135.332 506.039 138.438 509.058 142.273 509.205C143.002 509.233 216.184 512 304.349 512C392.514 512 465.696 509.233 466.425 509.205C470.26 509.058 473.365 506.039 473.621 502.21C473.647 501.816 476.265 462.204 477.753 405.986C477.863 401.844 474.595 398.399 470.455 398.289Z" fill="white"/>
<path d="M473.621 158.145C473.366 154.316 470.26 151.297 466.425 151.15C466.273 151.144 452.322 150.613 429.586 150.02C429.372 143.201 429.141 136.529 428.902 129.635C428.685 123.375 428.46 116.895 428.235 109.915C428.182 108.284 427.599 106.714 426.574 105.445C381.68 49.855 324.667 3.40896 324.096 2.94596C322.81 1.90396 321.216 1.31596 319.561 1.27396C311.734 1.07696 305.818 0.888955 300.525 0.721955C293.568 0.500955 287.56 0.309955 279.713 0.179955C279.671 0.179955 279.629 0.178955 279.586 0.178955C275.502 0.178955 272.157 3.45596 272.089 7.55496C272.021 11.697 275.322 15.11 279.464 15.179C287.198 15.307 293.153 15.496 300.049 15.715C303.493 15.824 307.199 15.942 311.518 16.065C310.833 32.357 309.622 71.964 311.884 111.178C312.107 115.04 315.23 118.099 319.096 118.241C319.402 118.252 337.962 118.918 363.667 118.918C378.592 118.918 395.926 118.694 413.493 117.986C413.634 122.176 413.774 126.21 413.911 130.155C414.916 159.139 415.784 184.171 415.784 232.985C415.784 335.507 411.982 423.187 410.815 447.677C390.31 448.541 325.867 450.977 250.878 450.977C247.386 450.977 243.92 450.972 240.481 450.962H240.458C236.327 450.962 232.971 454.305 232.958 458.44C232.946 462.582 236.293 465.95 240.436 465.963C243.89 465.973 247.372 465.978 250.878 465.978C341.963 465.978 417.575 462.397 418.328 462.361C422.172 462.176 425.253 459.112 425.457 455.269C425.51 454.269 430.783 353.901 430.783 232.986C430.783 203.85 430.476 183.146 430.015 165.037C442.957 165.377 452.959 165.694 459.068 165.9C460.289 186.691 463.784 252.968 463.784 330.178C463.784 343.772 463.675 357.845 463.46 372.01C463.397 376.152 466.704 379.56 470.845 379.623C470.884 379.623 470.922 379.624 470.961 379.624C475.05 379.624 478.396 376.341 478.458 372.238C478.674 357.998 478.784 343.847 478.784 330.178C478.785 236.606 473.673 158.919 473.621 158.145ZM326.5 103.453C325.022 72.388 325.614 41.947 326.212 24.404C343.093 39.075 375.693 68.733 405.258 103.276C371.59 104.377 339.986 103.801 326.5 103.453Z" fill="white"/>
<path d="M240.505 70.038C240.505 65.896 237.147 62.538 233.005 62.538H140.222C136.08 62.538 132.722 65.896 132.722 70.038C132.722 74.18 136.08 77.538 140.222 77.538H233.005C237.147 77.538 240.505 74.18 240.505 70.038Z" fill="white"/>
<path d="M210.505 125.039C210.505 120.897 207.147 117.539 203.005 117.539H140.222C136.08 117.539 132.722 120.897 132.722 125.039C132.722 129.181 136.08 132.539 140.222 132.539H203.005C207.147 132.539 210.505 129.181 210.505 125.039Z" fill="white"/>
<path d="M99.8319 269.895C95.6899 269.895 92.3319 273.253 92.3319 277.395V359.744C92.3319 363.886 95.6899 367.244 99.8319 367.244C103.974 367.244 107.332 363.886 107.332 359.744V330.679H131.828C143.566 330.679 153.115 321.13 153.115 309.392V291.183C153.115 279.445 143.566 269.896 131.828 269.896H99.8319V269.895ZM138.114 291.181V309.39C138.114 312.857 135.294 315.677 131.827 315.677H107.331V284.894H131.827C135.294 284.895 138.114 287.715 138.114 291.181Z" fill="white"/>
<path d="M292.614 284.895C296.756 284.895 300.114 281.537 300.114 277.395C300.114 273.253 296.756 269.895 292.614 269.895H252.831C248.689 269.895 245.331 273.253 245.331 277.395V359.744C245.331 363.886 248.689 367.244 252.831 367.244C256.973 367.244 260.331 363.886 260.331 359.744V330.679H292.614C296.756 330.679 300.114 327.321 300.114 323.179C300.114 319.037 296.756 315.679 292.614 315.679H260.331V284.896H292.614V284.895Z" fill="white"/>
<path d="M206.592 367.244C218.891 367.244 228.897 357.238 228.897 344.939V292.199C228.897 279.9 218.891 269.894 206.592 269.894H175.614C171.472 269.894 168.114 273.252 168.114 277.394V359.743C168.114 363.885 171.472 367.243 175.614 367.243H206.592V367.244ZM183.114 284.895H206.592C210.62 284.895 213.897 288.172 213.897 292.199V344.939C213.897 348.966 210.62 352.243 206.592 352.243H183.114V284.895Z" fill="white"/>
</g>
<defs>
<clipPath id="clip0">
<rect width="512" height="512" fill="white"/>
</clipPath>
</defs>
</svg>
