<svg width="512" height="512" viewBox="0 0 512 512" fill="none" xmlns="http://www.w3.org/2000/svg">
<g clip-path="url(#clip0)">
<path d="M470.454 398.29C466.345 398.206 462.868 401.449 462.759 405.589C461.635 448.012 459.868 480.897 459.07 494.455C438.997 495.129 376.761 497 304.35 497C231.954 497 169.706 495.129 149.629 494.455C149.262 488.235 148.691 477.955 148.075 464.599C164.294 465.022 182.854 465.411 202.914 465.667H203.012C207.11 465.667 210.457 462.372 210.509 458.262C210.562 454.12 207.247 450.72 203.106 450.667C149.669 449.987 106.936 448.354 90.9401 447.678C90.5761 440.061 89.9551 426.343 89.2771 408.069C116.863 409.083 154.11 410.069 194.718 410.069C277.988 410.069 347.124 405.926 347.813 405.884C351.859 405.638 354.957 402.222 354.834 398.17C354.834 398.153 354.833 398.137 354.833 398.12C355.008 393.301 356.221 358.4 356.221 316.568C356.221 271.712 354.867 234.827 354.854 234.46C354.71 230.604 351.665 227.487 347.814 227.252C347.126 227.21 277.989 223.068 194.719 223.068C183.07 223.068 171.043 223.149 158.972 223.309C154.83 223.364 151.517 226.766 151.573 230.908C151.628 235.05 155.028 238.366 159.172 238.308C171.177 238.148 183.137 238.068 194.72 238.068C262.433 238.068 320.727 240.82 340.089 241.846C340.474 254.495 341.222 283.323 341.222 316.568C341.222 349.818 340.451 378.649 340.054 391.292C320.663 392.319 262.415 395.068 194.72 395.068C127.042 395.068 68.7771 392.318 49.3851 391.291C48.9881 378.652 48.2181 349.831 48.2181 316.568C48.2181 283.32 48.9661 254.492 49.3521 241.845C61.3331 241.209 88.2141 239.909 122.861 239.018C127.002 238.912 130.272 235.469 130.166 231.328C130.061 227.187 126.636 223.928 122.477 224.023C109.013 224.369 96.7091 224.777 85.9821 225.184C86.1671 126.038 89.8071 42.157 90.9441 18.29C110.751 17.455 171.555 15.153 243.216 14.998C247.358 14.989 250.708 11.624 250.699 7.482C250.688 3.347 247.332 0 243.197 0H243.18C155.598 0.189 84.1401 3.574 83.4291 3.608C79.5841 3.793 76.5041 6.857 76.2991 10.7C76.2461 11.68 71.1801 108.115 70.9781 225.794C52.7451 226.583 41.8111 227.241 41.6231 227.253C37.7721 227.487 34.7271 230.605 34.5831 234.461C34.5691 234.828 33.2161 271.713 33.2161 316.569C33.2161 357.807 34.3941 392.309 34.5951 397.897C34.5891 397.988 34.5841 398.079 34.5821 398.17C34.4591 402.222 37.5771 405.638 41.6231 405.884C41.9101 405.901 54.0971 406.632 74.2451 407.477C75.3321 437.034 76.2891 455.076 76.2991 455.268C76.5041 459.111 79.5841 462.175 83.4291 462.36C83.7371 462.375 102.773 463.279 133.04 464.178C134.114 487.669 135.068 502.053 135.078 502.209C135.334 506.039 138.439 509.058 142.274 509.205C143.003 509.233 216.185 511.999 304.349 511.999C392.514 511.999 465.696 509.232 466.424 509.205C470.259 509.058 473.364 506.039 473.62 502.21C473.646 501.816 476.264 462.204 477.752 405.985C477.863 401.845 474.595 398.399 470.454 398.29Z" fill="white"/>
<path d="M473.621 158.145C473.365 154.316 470.261 151.297 466.425 151.15C466.273 151.144 452.323 150.613 429.587 150.02C429.373 143.209 429.142 136.545 428.904 129.659C428.687 123.391 428.462 116.904 428.236 109.915C428.183 108.284 427.6 106.715 426.575 105.445C381.681 49.854 324.667 3.40896 324.097 2.94596C322.811 1.90396 321.216 1.31596 319.562 1.27396C311.724 1.07696 305.803 0.888955 300.504 0.720955C293.555 0.499955 287.553 0.309955 279.713 0.179955C279.671 0.179955 279.629 0.178955 279.587 0.178955C275.502 0.178955 272.158 3.45596 272.09 7.55396C272.022 11.696 275.323 15.109 279.465 15.178C287.191 15.306 293.14 15.495 300.028 15.713C303.478 15.822 307.191 15.94 311.518 16.063C310.832 32.355 309.622 71.962 311.885 111.176C312.108 115.038 315.231 118.096 319.096 118.239C319.403 118.25 337.963 118.916 363.675 118.916C378.597 118.916 395.93 118.691 413.493 117.984C413.634 122.183 413.774 126.224 413.911 130.177C414.916 159.156 415.783 184.182 415.783 232.983C415.783 335.505 411.981 423.186 410.814 447.676C390.309 448.54 325.866 450.976 250.876 450.976C247.385 450.976 243.918 450.971 240.478 450.961H240.456C236.324 450.961 232.969 454.305 232.957 458.44C232.945 462.583 236.294 465.95 240.436 465.961C243.89 465.971 247.373 465.976 250.877 465.976C341.962 465.976 417.574 462.395 418.327 462.359C422.172 462.174 425.252 459.11 425.457 455.267C425.511 454.267 430.783 353.899 430.783 232.983C430.783 203.846 430.476 183.143 430.015 165.035C442.956 165.375 452.959 165.692 459.067 165.898C460.289 186.69 463.783 252.966 463.783 330.176C463.783 343.837 463.674 357.911 463.459 372.008C463.396 376.15 466.702 379.558 470.844 379.621C470.883 379.621 470.921 379.622 470.96 379.622C475.049 379.622 478.395 376.339 478.457 372.236C478.674 358.064 478.783 343.913 478.783 330.176C478.784 236.606 473.673 158.918 473.621 158.145ZM326.5 103.453C325.021 72.388 325.614 41.946 326.212 24.403C343.093 39.074 375.693 68.732 405.258 103.276C371.59 104.378 339.984 103.802 326.5 103.453Z" fill="white"/>
<path d="M240.506 70.0391C240.506 65.8971 237.149 62.5391 233.006 62.5391H140.223C136.08 62.5391 132.723 65.8971 132.723 70.0391C132.723 74.1811 136.08 77.5391 140.223 77.5391H233.006C237.148 77.5391 240.506 74.1811 240.506 70.0391Z" fill="white"/>
<path d="M210.506 125.039C210.506 120.897 207.149 117.539 203.006 117.539H140.223C136.08 117.539 132.723 120.897 132.723 125.039C132.723 129.181 136.08 132.539 140.223 132.539H203.006C207.148 132.539 210.506 129.181 210.506 125.039Z" fill="white"/>
<path d="M131.565 276.395V335.853C131.565 344.34 124.661 351.245 116.173 351.245C107.685 351.245 100.781 344.34 100.781 335.853C100.781 331.711 97.424 328.353 93.281 328.353C89.138 328.353 85.781 331.711 85.781 335.853C85.781 352.611 99.415 366.245 116.173 366.245C132.931 366.245 146.565 352.611 146.565 335.853V276.395C146.565 272.253 143.208 268.895 139.065 268.895C134.922 268.895 131.565 272.252 131.565 276.395Z" fill="white"/>
<path d="M177.565 358.744V329.679H202.06C213.797 329.679 223.347 320.13 223.347 308.392V290.183C223.347 278.445 213.797 268.896 202.06 268.896H170.065C165.922 268.896 162.565 272.254 162.565 276.396V358.745C162.565 362.887 165.922 366.245 170.065 366.245C174.208 366.245 177.565 362.886 177.565 358.744ZM177.565 283.895H202.06C205.527 283.895 208.347 286.715 208.347 290.182V308.391C208.347 311.858 205.527 314.678 202.06 314.678H177.565V283.895Z" fill="white"/>
<path d="M259.021 283.895H288.153C292.296 283.895 295.653 280.537 295.653 276.395C295.653 272.253 292.296 268.895 288.153 268.895H259.021C247.91 268.895 238.87 277.935 238.87 289.046V346.093C238.87 357.204 247.91 366.244 259.021 366.244H279.502C290.613 366.244 299.652 357.204 299.652 346.093V330.22C299.652 319.109 290.613 310.069 279.502 310.069H276.261C272.118 310.069 268.761 313.427 268.761 317.569C268.761 321.711 272.118 325.069 276.261 325.069H279.502C282.342 325.069 284.652 327.38 284.652 330.22V346.093C284.652 348.933 282.341 351.244 279.502 351.244H259.021C256.18 351.244 253.87 348.933 253.87 346.093V289.046C253.869 286.205 256.18 283.895 259.021 283.895Z" fill="white"/>
</g>
<defs>
<clipPath id="clip0">
<rect width="512" height="512" fill="white"/>
</clipPath>
</defs>
</svg>
