<svg width="512" height="512" viewBox="0 0 512 512" fill="none" xmlns="http://www.w3.org/2000/svg">
<g clip-path="url(#clip0)">
<path d="M206.715 352.039C191.371 352.039 178.887 364.52 178.887 379.863C178.887 395.207 191.371 407.688 206.715 407.688H305.883C321.227 407.688 333.707 395.207 333.707 379.863C333.707 364.52 321.227 352.039 305.883 352.039H284.125V225.547C284.125 210.203 271.641 197.719 256.297 197.719H206.715C191.371 197.719 178.887 210.203 178.887 225.547C178.887 240.887 191.371 253.371 206.715 253.371H228.473V352.039H206.715ZM235.984 238.352H206.715C199.652 238.352 193.906 232.605 193.906 225.547C193.906 218.484 199.652 212.738 206.715 212.738H256.301C263.359 212.738 269.105 218.484 269.105 225.547V359.547C269.105 363.695 272.469 367.059 276.617 367.059H305.883C312.945 367.059 318.691 372.801 318.691 379.863C318.691 386.926 312.945 392.672 305.883 392.672H206.715C199.652 392.672 193.906 386.926 193.906 379.863C193.906 372.801 199.652 367.059 206.715 367.059H235.984C240.133 367.059 243.492 363.695 243.492 359.547V245.863C243.492 241.715 240.129 238.352 235.984 238.352Z" fill="white"/>
<path d="M215.031 144.98C215.031 167.738 233.543 186.25 256.297 186.25C279.055 186.25 297.566 167.738 297.566 144.98C297.566 122.227 279.055 103.715 256.297 103.715C233.543 103.715 215.031 122.227 215.031 144.98ZM256.297 118.734C270.77 118.734 282.547 130.508 282.547 144.98C282.547 159.453 270.77 171.23 256.297 171.23C241.824 171.23 230.051 159.453 230.051 144.98C230.051 130.508 241.824 118.734 256.297 118.734Z" fill="white"/>
<path d="M273.301 15.0039C393.676 23.3789 488.633 118.516 497 238.703C497.273 242.66 500.57 245.688 504.48 245.688C504.656 245.688 504.836 245.684 505.012 245.672C509.148 245.383 512.27 241.793 511.98 237.656C503.082 109.801 401.992 8.90235 274.34 0.0195398C270.207 -0.269522 266.617 2.85157 266.328 6.98829C266.039 11.125 269.16 14.7149 273.301 15.0039Z" fill="white"/>
<path d="M37.6522 397.663L10.2539 487.206C7.52339 496.116 15.8788 504.475 24.789 501.749L114.336 474.346C117.554 473.362 121.089 473.815 124.046 475.585C163.82 499.436 209.98 512.002 256.57 511.998C391.987 511.991 502.659 407.78 511.983 273.745C512.268 269.609 509.147 266.023 505.01 265.734C500.87 265.444 497.288 268.569 496.999 272.706C484.542 451.788 287.148 555.877 131.769 462.706C125.171 458.749 117.214 457.76 109.941 459.983L26.4726 485.526L52.0154 402.061C54.242 394.784 53.2498 386.831 49.2928 380.233C-43.7968 224.98 60.0271 27.4725 239.296 14.9999C243.433 14.7148 246.554 11.1249 246.265 6.98821C245.98 2.8515 242.378 -0.261769 238.253 0.0194804C114.812 8.60539 15.8398 103.226 1.69138 225.929C-4.80079 282.241 7.5312 339.784 36.4139 387.956C38.1874 390.909 38.6366 394.448 37.6522 397.663Z" fill="white"/>
</g>
<defs>
<clipPath id="clip0">
<rect width="512" height="512" fill="white"/>
</clipPath>
</defs>
</svg>
