<svg width="512" height="512" viewBox="0 0 512 512" fill="none" xmlns="http://www.w3.org/2000/svg">
<path d="M216.533 73.859C173.973 90.701 146.039 132.212 146.024 177.695C146.024 194.207 159.382 207.678 176.028 207.678C192.647 207.678 206.032 194.232 206.032 177.695C206.072 149.248 228.968 126.088 257.638 126.067C285.774 126.067 309.315 149.785 309.315 177.645C309.305 199.23 296.293 218.166 276.191 225.903C261.769 231.432 249.568 240.96 240.906 253.477C225.065 276.345 227.674 295.639 227.674 325.61C227.674 327.989 227.954 330.359 228.504 332.668C229.324 336.047 232.325 338.407 235.795 338.407C240.689 338.407 244.225 333.827 243.096 329.149C242.509 326.719 242.666 328.434 242.666 296.027C242.706 271.033 257.968 249.008 281.571 239.9C326.122 222.835 339.231 165.28 304.664 130.726C262.567 88.676 190.965 118.639 191.031 177.694C191.011 185.942 184.29 192.671 176.029 192.69C167.768 192.67 161.037 185.942 161.027 177.694C161.006 123.634 206.445 77.598 263.81 81.266C313.578 84.361 354.321 126.123 354.321 177.703C354.311 218.014 329.978 253.425 292.343 267.902C286.542 270.111 281.612 273.93 278.081 278.939C271.281 288.636 272.68 294.266 272.68 325.608C272.66 333.856 265.929 340.584 257.678 340.595C253.538 340.595 250.177 343.963 250.177 348.093C250.177 363.839 287.647 354.247 287.682 325.608V296.025C287.701 289.728 291.552 284.31 297.723 281.901C341.332 265.15 369.362 223.688 369.322 177.705C369.322 99.377 289.724 44.808 216.533 73.859Z" fill="white"/>
<path d="M283.268 400.466C271.577 381.101 244.606 381.503 232.704 399.414C219.634 419.09 233.343 445.981 257.918 445.981C280.561 445.981 295.648 420.974 283.268 400.466ZM254.094 430.513C248.278 429.079 244.121 424.755 242.974 418.946C239.902 402.365 261.816 393.955 270.424 408.215C277.403 419.776 267.199 433.745 254.094 430.513Z" fill="white"/>
<path d="M384.383 34.529C251.159 -42.769 79.981 14.818 20.129 156.41C-4.22696 213.933 -6.25596 278.358 12.828 336.198C26.103 376.428 47.915 405.698 49.672 407.252L49.702 407.212L49.682 407.262C49.702 407.282 49.722 407.292 49.752 407.322C49.762 407.322 49.762 407.333 49.772 407.343C49.782 407.343 49.782 407.353 49.792 407.363C52.612 409.73 55.003 409.053 56.003 409.053L56.023 409.043C56.118 409.043 56.8 408.89 57.443 408.633C57.453 408.633 57.463 408.633 57.463 408.633C57.463 408.633 57.631 408.554 57.633 408.553H57.653C62.502 406.471 63.359 400.318 60.733 397.245C-55.015 237.51 60.68 15.094 256.038 15.094C390.865 15.094 497.067 125.047 497.067 256.037C497.067 389.183 389.259 496.98 256.038 496.98C204.912 496.98 156.056 481.163 114.761 451.251C112.461 449.581 109.291 449.372 106.79 450.731L22.599 496.3C18.596 498.441 14.983 494.946 15.008 491.871C15.029 490.075 13.189 494.007 46.982 431.605C49.699 426.601 46.028 420.538 40.401 420.538C37.641 420.538 35.11 422.047 33.801 424.467C-0.216961 487.262 -0.0139586 485.157 0.00704138 491.871C0.0340414 506.57 15.958 516.962 29.741 509.497L109.821 466.137C196.393 526.499 311.685 527.348 399.186 468.266C555.843 362.489 547.896 129.378 384.383 34.529Z" fill="white"/>
</svg>
