<svg width="512" height="512" viewBox="0 0 512 512" fill="none" xmlns="http://www.w3.org/2000/svg">
<g clip-path="url(#clip0)">
<path d="M444.576 345.372C444.576 332.023 433.716 321.163 420.367 321.163C407.018 321.163 396.159 332.023 396.159 345.372C396.159 358.721 407.018 369.581 420.367 369.581C433.716 369.581 444.576 358.721 444.576 345.372ZM411.157 345.372C411.157 340.294 415.288 336.163 420.366 336.163C425.444 336.163 429.575 340.294 429.575 345.372C429.575 350.45 425.444 354.581 420.366 354.581C415.288 354.581 411.157 350.45 411.157 345.372ZM294.577 345.372C294.577 332.023 283.717 321.163 270.368 321.163C257.019 321.163 246.159 332.023 246.159 345.372C246.159 358.721 257.019 369.581 270.368 369.581C283.717 369.581 294.577 358.721 294.577 345.372ZM261.158 345.372C261.158 340.294 265.289 336.163 270.367 336.163C275.445 336.163 279.576 340.294 279.576 345.372C279.576 350.45 275.445 354.581 270.367 354.581C265.289 354.581 261.158 350.45 261.158 345.372ZM484.766 487.744L455.485 470.417C491.708 438.5 512.297 392.582 511.997 344.302C511.718 300.646 494.508 259.404 463.535 228.172C432.559 196.937 391.464 179.389 347.812 178.761C342.797 178.694 337.773 178.872 332.787 179.241C333.098 175.065 333.259 170.86 333.259 166.631C333.259 121.669 315.622 79.5235 283.598 47.9567C251.58 16.3959 209.167 -0.640995 164.178 0.0200012C134.063 0.452999 104.606 9.11395 78.9924 25.0659C75.4764 27.2558 74.4014 31.8808 76.5914 35.3968C78.7804 38.9128 83.4074 39.9888 86.9223 37.7978C110.218 23.2889 137.008 15.4109 164.394 15.0169C205.343 14.4339 243.933 29.9188 273.068 58.6387C302.21 87.3645 318.259 125.716 318.259 166.631C318.259 173.271 317.824 179.847 316.986 186.331V186.334C312.776 218.908 298.166 249.108 274.786 272.896C246.804 301.369 209.442 317.465 169.571 318.223L41.0476 318.254L64.8495 304.171C68.8185 301.823 71.4384 297.681 71.8604 293.091C72.2824 288.497 70.4574 283.942 66.9785 280.905C33.6677 251.834 14.7238 209.824 15.0028 165.649C15.2618 124.58 31.8477 86.1495 61.7045 57.4347C64.6905 54.5627 64.7825 49.8157 61.9115 46.8307C59.0405 43.8457 54.2925 43.7517 51.3076 46.6237C18.5087 78.1685 0.288852 120.406 0.00285324 165.555C-0.302145 213.83 20.2847 259.753 56.5095 291.676L27.2257 309.002C22.1037 312.032 19.7197 317.923 21.2907 323.663C22.8617 329.401 27.9137 333.255 33.8627 333.255H33.8667L169.644 333.222C169.69 333.222 169.736 333.222 169.781 333.221C213.627 332.407 254.717 314.716 285.484 283.41C309.702 258.767 325.361 227.866 330.954 194.42C336.457 193.906 342.034 193.683 347.599 193.76C387.298 194.332 424.688 210.304 452.883 238.735C481.076 267.164 496.743 304.69 496.996 344.397C497.27 388.576 478.324 430.583 445.013 459.65C441.534 462.688 439.711 467.244 440.135 471.839C440.558 476.428 443.181 480.569 447.147 482.914L470.949 496.997L342.43 496.969C265.325 495.498 201.701 436.575 194.424 359.881C194.033 355.758 190.379 352.731 186.249 353.123C182.125 353.514 179.1 357.174 179.491 361.298C187.491 445.615 257.448 510.39 342.218 511.968C342.264 511.969 342.31 511.969 342.356 511.969L478.126 511.999C484.079 511.999 489.133 508.144 490.704 502.406C492.275 496.668 489.889 490.775 484.766 487.744ZM166.629 250.192C153.28 250.192 142.42 261.051 142.42 274.4C142.42 287.749 153.28 298.609 166.629 298.609C179.978 298.609 190.838 287.749 190.838 274.4C190.838 261.051 179.978 250.192 166.629 250.192ZM166.629 283.61C161.551 283.61 157.42 279.479 157.42 274.401C157.42 269.323 161.551 265.192 166.629 265.192C171.707 265.192 175.838 269.323 175.838 274.401C175.838 279.479 171.707 283.61 166.629 283.61ZM369.577 345.372C369.577 332.023 358.717 321.163 345.368 321.163C332.019 321.163 321.159 332.023 321.159 345.372C321.159 358.721 332.019 369.581 345.368 369.581C358.717 369.581 369.577 358.721 369.577 345.372ZM336.158 345.372C336.158 340.294 340.289 336.163 345.367 336.163C350.445 336.163 354.576 340.294 354.576 345.372C354.576 350.45 350.445 354.581 345.367 354.581C340.289 354.581 336.158 350.45 336.158 345.372ZM219.991 158.885C234.024 144.104 241.17 124.735 240.111 104.347C238.091 65.4696 205.558 34.6478 166.635 34.6478C130.126 34.6478 98.7943 61.8806 93.7553 97.9944C93.2843 101.367 93.0453 104.811 93.0453 108.231C93.0453 120.638 103.138 130.731 115.545 130.731C127.952 130.731 138.045 120.638 138.045 108.231C138.045 106.882 138.138 105.533 138.323 104.215C140.317 89.9195 152.737 79.3635 167.231 79.6535C182.128 79.9535 194.401 91.8245 195.173 106.679C195.585 114.621 192.809 122.158 187.357 127.9C181.899 133.649 174.538 136.814 166.629 136.814C154.222 136.814 144.129 146.907 144.129 159.314V212.731C144.129 225.138 154.222 235.231 166.629 235.231C179.036 235.231 189.129 225.138 189.129 212.731V178.266C200.889 174.489 211.468 167.861 219.991 158.885ZM179.914 165.27C176.524 166.065 174.128 169.089 174.128 172.571V212.732C174.128 216.868 170.764 220.232 166.628 220.232C162.492 220.232 159.128 216.868 159.128 212.732V159.315C159.128 155.179 162.492 151.815 166.628 151.815C178.692 151.815 189.917 146.99 198.234 138.229C206.547 129.474 210.779 117.994 210.152 105.902C208.958 82.8945 189.685 64.6486 166.636 64.6486C144.944 64.6486 126.467 80.6225 123.466 102.14C122.662 107.907 123.548 115.732 115.544 115.732C106.891 115.732 107.788 105.956 108.61 100.069C112.621 71.3246 137.566 49.6487 166.634 49.6487C197.566 49.6487 223.525 74.1896 225.132 105.126C225.975 121.365 220.286 136.79 209.112 148.558C201.233 156.856 191.137 162.635 179.914 165.27Z" fill="white"/>
</g>
<defs>
<clipPath id="clip0">
<rect width="512" height="512" fill="white"/>
</clipPath>
</defs>
</svg>
