<svg width="512" height="512" viewBox="0 0 512 512" fill="none" xmlns="http://www.w3.org/2000/svg">
<path d="M38.8721 149.21H117.97C122.112 149.21 125.47 145.853 125.47 141.71C125.47 137.567 122.112 134.21 117.97 134.21H38.8721C34.7301 134.21 31.3721 137.567 31.3721 141.71C31.3721 145.853 34.7291 149.21 38.8721 149.21Z" fill="white"/>
<path d="M115.258 185.317H84.0122C79.8702 185.317 76.5122 188.674 76.5122 192.817C76.5122 196.96 79.8702 200.317 84.0122 200.317H115.258C119.4 200.317 122.758 196.96 122.758 192.817C122.758 188.674 119.4 185.317 115.258 185.317Z" fill="white"/>
<path d="M7.5 237.327H84.012C88.154 237.327 91.512 233.97 91.512 229.827C91.512 225.684 88.154 222.327 84.012 222.327H7.5C3.358 222.327 0 225.684 0 229.827C0 233.97 3.358 237.327 7.5 237.327Z" fill="white"/>
<path d="M125.47 370.289C125.47 366.146 122.112 362.789 117.97 362.789H38.8721C34.7301 362.789 31.3721 366.146 31.3721 370.289C31.3721 374.432 34.7301 377.789 38.8721 377.789H117.97C122.112 377.789 125.47 374.432 125.47 370.289Z" fill="white"/>
<path d="M115.258 311.683H84.0122C79.8702 311.683 76.5122 315.04 76.5122 319.183C76.5122 323.326 79.8702 326.683 84.0122 326.683H115.258C119.4 326.683 122.758 323.326 122.758 319.183C122.758 315.04 119.4 311.683 115.258 311.683Z" fill="white"/>
<path d="M91.512 282.173C91.512 278.03 88.154 274.673 84.012 274.673H7.5C3.358 274.673 0 278.03 0 282.173C0 286.316 3.358 289.673 7.5 289.673H84.012C88.154 289.673 91.512 286.316 91.512 282.173Z" fill="white"/>
<path d="M319.529 165.83C323.672 165.83 327.029 162.473 327.029 158.33V146.882C327.029 142.739 323.672 139.382 319.529 139.382C315.386 139.382 312.029 142.739 312.029 146.882V158.33C312.029 162.473 315.386 165.83 319.529 165.83Z" fill="white"/>
<path d="M401.99 173.538C399.06 170.61 394.312 170.61 391.383 173.538L383.288 181.633C380.359 184.563 380.359 189.311 383.288 192.24C386.219 195.169 390.966 195.168 393.895 192.24L401.99 184.145C404.918 181.216 404.918 176.468 401.99 173.538Z" fill="white"/>
<path d="M417.199 248.5C413.056 248.5 409.699 251.857 409.699 256C409.699 260.143 413.056 263.5 417.199 263.5H428.646C432.789 263.5 436.146 260.143 436.146 256C436.146 251.857 432.789 248.5 428.646 248.5H417.199Z" fill="white"/>
<path d="M393.895 319.759C390.965 316.831 386.217 316.831 383.288 319.759C380.359 322.689 380.359 327.437 383.288 330.366L391.383 338.461C394.314 341.39 399.061 341.389 401.99 338.461C404.919 335.531 404.919 330.783 401.99 327.854L393.895 319.759Z" fill="white"/>
<path d="M312.029 353.67V365.117C312.029 369.26 315.386 372.617 319.529 372.617C323.672 372.617 327.029 369.26 327.029 365.117V353.67C327.029 349.527 323.672 346.17 319.529 346.17C315.386 346.17 312.029 349.528 312.029 353.67Z" fill="white"/>
<path d="M245.162 319.759L237.067 327.854C234.138 330.784 234.138 335.532 237.067 338.461C239.997 341.39 244.745 341.389 247.673 338.461L255.768 330.366C258.697 327.436 258.697 322.688 255.768 319.759C252.84 316.831 248.091 316.831 245.162 319.759Z" fill="white"/>
<path d="M210.411 248.5C206.269 248.5 202.911 251.857 202.911 256C202.911 260.143 206.269 263.5 210.411 263.5H221.859C226.001 263.5 229.359 260.143 229.359 256C229.359 251.857 226.001 248.5 221.859 248.5H210.411Z" fill="white"/>
<path d="M255.769 181.633L247.674 173.538C244.745 170.61 239.996 170.61 237.068 173.538C234.139 176.468 234.139 181.216 237.068 184.145L245.163 192.24C248.093 195.169 252.841 195.168 255.769 192.24C258.698 189.311 258.698 184.563 255.769 181.633Z" fill="white"/>
<path d="M359.859 256C359.859 251.857 356.502 248.5 352.359 248.5H327.029V192.816C327.029 188.673 323.672 185.316 319.529 185.316C315.386 185.316 312.029 188.673 312.029 192.816V256C312.029 260.143 315.386 263.5 319.529 263.5H352.359C356.501 263.5 359.859 260.143 359.859 256Z" fill="white"/>
<path d="M461.741 254.762C465.876 254.511 469.024 250.956 468.773 246.822C464.002 168.119 398.446 106.468 319.528 106.468C237.076 106.468 169.996 173.548 169.996 256.001C169.996 338.453 237.076 405.533 319.528 405.533C393.397 405.533 456.428 351.411 467.393 278.376C468.008 274.28 465.186 270.461 461.089 269.846C457.003 269.233 453.174 272.052 452.559 276.15C442.709 341.764 386.053 390.534 319.528 390.534C245.347 390.534 184.996 330.183 184.996 256.002C184.996 181.821 245.347 121.469 319.528 121.469C390.529 121.469 449.508 176.93 453.8 247.732C454.05 251.864 457.602 255.002 461.741 254.762Z" fill="white"/>
<path d="M319.528 63.5291C293.147 63.5291 267.3 69.0021 243.51 79.2371H111.181C107.039 79.2371 103.681 82.5941 103.681 86.7371C103.681 90.8801 107.039 94.2371 111.181 94.2371H215.294C201.217 103.297 188.258 114.225 176.832 126.841C174.052 129.91 174.286 134.653 177.356 137.434C180.427 140.215 185.168 139.98 187.95 136.91C221.552 99.8081 269.511 78.5291 319.528 78.5291C417.386 78.5291 497 158.142 497 256C497 353.857 417.387 433.471 319.528 433.471C221.67 433.471 142.057 353.858 142.057 256C142.057 221.732 151.846 188.472 170.364 159.814C172.612 156.335 171.614 151.693 168.135 149.445C164.656 147.198 160.014 148.194 157.765 151.674C137.675 182.762 127.057 218.837 127.057 256C127.057 323.766 162.263 383.458 215.342 417.763H111.182C107.04 417.763 103.682 421.12 103.682 425.263C103.682 429.406 107.04 432.763 111.182 432.763H243.407C266.767 442.862 292.504 448.471 319.529 448.471C425.657 448.471 512 362.129 512 256C512 149.871 425.657 63.5291 319.528 63.5291Z" fill="white"/>
</svg>
