<svg width="512" height="512" viewBox="0 0 512 512" fill="none" xmlns="http://www.w3.org/2000/svg">
<g clip-path="url(#clip0)">
<path d="M491.729 112.971L259.261 0.744996C257.2 -0.249004 254.8 -0.249004 252.74 0.744996L20.271 112.971C17.679 114.222 16.032 116.847 16.032 119.725V392.274C16.032 395.152 17.679 397.777 20.271 399.028L252.739 511.254C253.769 511.751 254.885 512 256 512C257.115 512 258.23 511.751 259.261 511.254L491.729 399.028C494.321 397.777 495.968 395.152 495.968 392.274V119.726C495.968 116.846 494.32 114.223 491.729 112.971ZM256 15.828L471.217 119.725L408.83 149.843C408.435 149.542 408.018 149.264 407.56 149.043L193.805 45.853L256 15.828ZM176.867 54.333L391.771 158.079L347.756 179.328L132.941 75.624L176.867 54.333ZM396.799 172.307V250.853L355.686 270.701V192.155L396.799 172.307ZM480.968 387.568L263.5 492.55V236.658L315.373 211.616C319.103 209.815 320.667 205.332 318.866 201.601C317.065 197.872 312.582 196.306 308.851 198.108L256 223.623L235.204 213.583C231.473 211.78 226.99 213.346 225.189 217.076C223.388 220.806 224.952 225.29 228.682 227.091L248.5 236.658V492.55L31.032 387.566V131.674L196.632 211.619C197.683 212.127 198.794 212.367 199.887 212.367C202.675 212.367 205.353 210.805 206.646 208.126C208.447 204.396 206.883 199.912 203.153 198.111L40.783 119.725L115.288 83.757L340.582 192.52C340.615 192.566 340.652 192.607 340.686 192.652V282.651C340.686 285.232 342.013 287.631 344.199 289.004C345.413 289.766 346.798 290.151 348.187 290.151C349.299 290.151 350.414 289.904 351.447 289.405L407.56 262.316C410.152 261.065 411.799 258.441 411.799 255.562V165.067L480.968 131.675V387.568Z" fill="white"/>
<path d="M92.926 358.479L58.811 342.01C55.079 340.207 50.597 341.773 48.796 345.503C46.995 349.233 48.559 353.717 52.289 355.518L86.404 371.987C87.455 372.495 88.566 372.735 89.659 372.735C92.447 372.735 95.125 371.173 96.418 368.494C98.22 364.763 96.656 360.281 92.926 358.479Z" fill="white"/>
<path d="M124.323 338.042L58.858 306.438C55.127 304.637 50.644 306.201 48.843 309.932C47.043 313.662 48.607 318.146 52.337 319.947L117.802 351.551C118.853 352.058 119.964 352.299 121.057 352.299C123.845 352.299 126.523 350.737 127.816 348.058C129.617 344.326 128.053 339.842 124.323 338.042Z" fill="white"/>
</g>
<defs>
<clipPath id="clip0">
<rect width="512" height="512" fill="white"/>
</clipPath>
</defs>
</svg>
