<svg width="512" height="512" viewBox="0 0 512 512" fill="none" xmlns="http://www.w3.org/2000/svg">
<g clip-path="url(#clip0)">
<path d="M440.126 121.62C420.186 120.089 397.622 115.559 373.061 108.158C343.554 99.2636 314.912 100.637 287.928 112.236C284.122 113.872 282.364 118.283 283.999 122.089C285.635 125.893 290.041 127.655 293.852 126.018C317.503 115.851 342.698 114.673 368.733 122.52C394.328 130.234 417.962 134.962 438.978 136.576C439.173 136.592 439.368 136.598 439.56 136.598C443.442 136.598 446.728 133.607 447.03 129.672C447.347 125.542 444.256 121.937 440.126 121.62Z" fill="white"/>
<path d="M440.125 153.495C420.19 151.965 397.627 147.436 373.061 140.033C343.554 131.139 314.912 132.512 287.928 144.111C284.122 145.747 282.364 150.158 283.999 153.964C285.635 157.769 290.041 159.53 293.852 157.893C317.503 147.726 342.698 146.548 368.733 154.395C394.334 162.11 417.967 166.839 438.979 168.451C439.174 168.467 439.368 168.473 439.56 168.473C443.442 168.473 446.728 165.482 447.03 161.546C447.347 157.416 444.256 153.812 440.125 153.495Z" fill="white"/>
<path d="M440.126 312.873C420.185 311.342 397.621 306.812 373.061 299.41C343.556 290.516 314.915 291.89 287.928 303.489C284.122 305.125 282.364 309.536 283.999 313.342C285.635 317.146 290.041 318.908 293.852 317.271C317.504 307.104 342.699 305.928 368.733 313.772C394.327 321.486 417.961 326.215 438.978 327.829C439.173 327.845 439.368 327.851 439.56 327.851C443.442 327.851 446.728 324.86 447.03 320.925C447.347 316.795 444.256 313.19 440.126 312.873Z" fill="white"/>
<path d="M440.126 344.748C420.186 343.217 397.622 338.687 373.061 331.286C343.554 322.393 314.912 323.765 287.928 335.364C284.122 337 282.364 341.411 283.999 345.217C285.635 349.022 290.041 350.783 293.852 349.146C317.503 338.979 342.698 337.801 368.733 345.648C394.328 353.362 417.962 358.09 438.978 359.704C439.173 359.72 439.368 359.726 439.56 359.726C443.442 359.726 446.728 356.735 447.03 352.8C447.347 348.67 444.256 345.065 440.126 344.748Z" fill="white"/>
<path d="M440.126 185.371C420.185 183.84 397.621 179.31 373.061 171.908C343.556 163.015 314.915 164.387 287.928 175.987C284.122 177.623 282.364 182.034 283.999 185.84C285.635 189.644 290.041 191.405 293.852 189.769C317.504 179.602 342.699 178.425 368.733 186.27C394.327 193.984 417.961 198.713 438.978 200.327C439.173 200.343 439.368 200.349 439.56 200.349C443.442 200.349 446.728 197.358 447.03 193.423C447.347 189.293 444.256 185.688 440.126 185.371Z" fill="white"/>
<path d="M440.125 249.12C420.19 247.591 397.627 243.062 373.061 235.659C343.556 226.765 314.913 228.138 287.928 239.737C284.122 241.373 282.364 245.784 283.999 249.59C285.635 253.395 290.041 255.156 293.852 253.519C317.502 243.353 342.698 242.175 368.733 250.021C394.334 257.736 417.967 262.465 438.979 264.078C439.174 264.093 439.368 264.099 439.56 264.099C443.442 264.099 446.728 261.108 447.03 257.172C447.347 253.042 444.256 249.438 440.125 249.12Z" fill="white"/>
<path d="M440.126 217.246C420.186 215.715 397.622 211.185 373.061 203.784C343.557 194.89 314.913 196.263 287.928 207.862C284.122 209.498 282.364 213.909 283.999 217.715C285.635 221.519 290.041 223.281 293.852 221.644C317.506 211.477 342.699 210.3 368.733 218.146C394.328 225.86 417.962 230.588 438.978 232.202C439.173 232.218 439.368 232.224 439.56 232.224C443.442 232.224 446.728 229.233 447.03 225.298C447.347 221.168 444.256 217.563 440.126 217.246Z" fill="white"/>
<path d="M440.125 280.996C420.187 279.467 397.623 274.937 373.061 267.535C343.556 258.642 314.915 260.014 287.928 271.614C284.122 273.25 282.364 277.661 283.999 281.467C285.635 285.271 290.041 287.032 293.852 285.396C317.504 275.229 342.699 274.053 368.733 281.897C394.33 289.612 417.963 294.341 438.979 295.954C439.174 295.969 439.368 295.975 439.56 295.975C443.442 295.975 446.728 292.984 447.03 289.048C447.347 284.918 444.256 281.314 440.125 280.996Z" fill="white"/>
<path d="M72.44 136.597C72.632 136.597 72.827 136.59 73.022 136.575C94.039 134.962 117.672 130.233 143.267 122.519C169.302 114.673 194.496 115.849 218.148 126.017C221.953 127.653 226.365 125.893 228.001 122.088C229.637 118.282 227.878 113.871 224.072 112.235C197.088 100.635 168.445 99.264 138.939 108.157C114.377 115.558 91.814 120.088 71.874 121.619C67.744 121.935 64.653 125.541 64.971 129.671C65.272 133.606 68.559 136.597 72.44 136.597Z" fill="white"/>
<path d="M72.44 168.472C72.632 168.472 72.827 168.465 73.021 168.45C94.033 166.839 117.667 162.109 143.267 154.394C169.302 146.548 194.496 147.723 218.148 157.892C221.953 159.527 226.365 157.768 228.001 153.963C229.637 150.157 227.878 145.746 224.072 144.11C197.088 132.51 168.445 131.14 138.939 140.032C114.373 147.435 91.809 151.964 71.875 153.494C67.744 153.81 64.653 157.415 64.971 161.545C65.272 165.481 68.559 168.472 72.44 168.472Z" fill="white"/>
<path d="M72.4404 327.851C72.6324 327.851 72.8274 327.844 73.0224 327.829C94.0404 326.216 117.673 321.486 143.267 313.772C169.303 305.924 194.496 307.104 218.148 317.271C221.953 318.906 226.365 317.147 228.001 313.342C229.637 309.536 227.878 305.125 224.072 303.489C197.088 291.889 168.445 290.518 138.939 299.41C114.378 306.812 91.8154 311.342 71.8744 312.873C67.7444 313.189 64.6534 316.795 64.9714 320.925C65.2724 324.86 68.5594 327.851 72.4404 327.851Z" fill="white"/>
<path d="M72.4404 359.726C72.6324 359.726 72.8274 359.719 73.0224 359.704C94.0394 358.091 117.672 353.362 143.267 345.648C169.302 337.802 194.496 338.977 218.148 349.146C221.953 350.78 226.365 349.022 228.001 345.217C229.637 341.411 227.878 337 224.072 335.364C197.088 323.764 168.445 322.393 138.939 331.286C114.377 338.687 91.8144 343.217 71.8744 344.748C67.7444 345.064 64.6534 348.67 64.9714 352.8C65.2724 356.735 68.5594 359.726 72.4404 359.726Z" fill="white"/>
<path d="M72.44 200.348C72.632 200.348 72.827 200.341 73.022 200.326C94.04 198.713 117.673 193.983 143.267 186.269C169.303 178.422 194.496 179.601 218.148 189.768C221.953 191.403 226.365 189.644 228.001 185.839C229.637 182.033 227.878 177.622 224.072 175.986C197.088 164.386 168.445 163.015 138.939 171.907C114.378 179.309 91.815 183.839 71.874 185.37C67.744 185.686 64.653 189.292 64.971 193.422C65.272 197.357 68.559 200.348 72.44 200.348Z" fill="white"/>
<path d="M72.4404 264.099C72.6324 264.099 72.8274 264.092 73.0214 264.078C94.0334 262.466 117.667 257.736 143.267 250.021C169.302 242.175 194.496 243.35 218.148 253.519C221.953 255.154 226.365 253.395 228.001 249.59C229.637 245.784 227.878 241.373 224.072 239.737C197.089 228.138 168.447 226.766 138.939 235.659C114.373 243.062 91.8094 247.591 71.8754 249.12C67.7444 249.437 64.6534 253.042 64.9714 257.172C65.2724 261.108 68.5594 264.099 72.4404 264.099Z" fill="white"/>
<path d="M72.4404 232.224C72.6324 232.224 72.8274 232.217 73.0224 232.202C94.0394 230.589 117.672 225.86 143.267 218.146C169.301 210.301 194.495 211.475 218.148 221.644C221.953 223.278 226.365 221.52 228.001 217.715C229.637 213.909 227.878 209.498 224.072 207.862C197.086 196.262 168.445 194.889 138.939 203.784C114.377 211.185 91.8144 215.715 71.8744 217.246C67.7444 217.562 64.6534 221.168 64.9714 225.298C65.2724 229.233 68.5594 232.224 72.4404 232.224Z" fill="white"/>
<path d="M72.4404 295.975C72.6324 295.975 72.8274 295.968 73.0214 295.954C94.0374 294.342 117.67 289.612 143.267 281.897C169.303 274.049 194.496 275.229 218.148 285.396C221.953 287.032 226.365 285.272 228.001 281.467C229.637 277.661 227.878 273.25 224.072 271.614C197.088 260.014 168.445 258.642 138.939 267.535C114.377 274.937 91.8124 279.467 71.8754 280.996C67.7444 281.313 64.6534 284.918 64.9714 289.048C65.2724 292.984 68.5594 295.975 72.4404 295.975Z" fill="white"/>
<path d="M493.683 93.3153H481.942V86.4722C481.942 76.8822 473.761 69.2961 464.18 70.0591C453.113 70.9441 428.88 70.9981 390.917 61.3721C386.9 60.3511 382.82 62.7841 381.804 66.7981C380.785 70.8141 383.215 74.8941 387.23 75.9111C425.284 85.5602 450.733 86.1872 465.379 85.0102C466.232 84.9502 466.941 85.6132 466.941 86.4722V389.13C438.531 392.195 400.578 384.062 373.06 375.77C311.599 357.247 271.866 389.07 263.5 393.604V93.8122C271.604 86.2112 304.267 59.2891 352.88 67.1111C356.967 67.7751 360.818 64.9891 361.477 60.8991C362.136 56.81 359.355 52.961 355.265 52.302C304.22 44.078 268.996 69.0121 255.981 80.3672C226.142 54.489 183.46 42.994 138.94 56.414C91.1565 70.8141 61.3384 71.1391 47.8213 70.0601C38.2272 69.2901 30.0602 76.9002 30.0602 86.4722V93.3153H18.3171C8.21705 93.3153 0 101.531 0 111.632V415.777C0 425.878 8.21805 434.094 18.3181 434.094H212.645C215.557 434.094 218.198 435.701 219.374 438.191C233.93 468.987 278.016 469.1 292.625 438.191C293.802 435.703 296.443 434.094 299.355 434.094H493.682C503.782 434.094 511.998 425.877 511.998 415.777V273.541C511.998 269.398 508.641 266.041 504.498 266.041C500.355 266.041 496.998 269.398 496.998 273.541V415.776C496.998 417.605 495.511 419.093 493.682 419.093H299.356C290.672 419.093 282.708 424.072 279.065 431.78C269.897 451.175 242.138 451.252 232.936 431.781C229.294 424.074 221.33 419.093 212.645 419.093H18.3181C16.4881 419.093 15.0001 417.605 15.0001 415.776V111.632C15.0001 109.803 16.4881 108.315 18.3171 108.315H30.0602V395.531C30.0602 398.934 32.3512 401.911 35.6412 402.781C37.0672 403.159 71.4194 411.786 143.269 390.132C178.032 379.656 211.584 386.08 238.205 404.853C248.498 412.11 262.828 412.59 273.799 404.852C289.876 393.514 323.584 376.528 368.734 390.132C440.587 411.785 474.936 403.158 476.362 402.781C479.652 401.911 481.943 398.934 481.943 395.531V108.315H493.684C495.513 108.315 497.001 109.803 497.001 111.632V238.541C497.001 242.684 500.358 246.041 504.501 246.041C508.644 246.041 512.001 242.684 512.001 238.541V111.632C512 101.531 503.783 93.3153 493.683 93.3153ZM45.0603 86.4722C45.0603 85.6312 45.7473 84.9492 46.6223 85.0102C61.1924 86.1822 93.1275 85.8862 143.269 70.7751C183.876 58.541 222.67 69.6321 248.5 93.8183V393.604C244.198 391.275 202.026 356.755 138.94 375.771C134.895 376.99 130.449 378.256 126.335 379.355C126.285 379.368 126.235 379.382 126.186 379.395C102.036 385.837 69.9094 391.81 45.0593 389.134C45.0603 368.288 45.0603 92.0622 45.0603 86.4722Z" fill="white"/>
</g>
<defs>
<clipPath id="clip0">
<rect width="512" height="512" fill="white"/>
</clipPath>
</defs>
</svg>
