<svg width="80" height="74" viewBox="0 0 80 74" fill="none" xmlns="http://www.w3.org/2000/svg">
<path d="M66.6824 18.2791L23.8514 0.786865L10.8408 32.6387L9.97236 34.7787L12.1278 35.6626L12.9963 33.5073L25.123 3.8264L60.5259 18.2791H25.8985V65.5453L3.63002 56.4425L8.79377 43.7884L7.72392 43.3544L8.79377 43.7884L9.47611 42.1294L7.33611 41.2455L6.65392 42.9202L0.605957 57.7141L25.8985 68.0575V73.2678H79.6311V38.0819V37.6787V35.7558H77.3049V37.6787V38.0819V70.9419H28.2244V69.0033V20.6051H72.3738H77.3049V26.4514V28.7776H79.6311V26.4514V18.2791H66.6824Z" fill="white"/>
<path d="M77.3049 31.1035H79.6312V33.4296H77.3049V31.1035Z" fill="white"/>
<path d="M11.2278 37.8276L10.3485 39.9817L8.19435 39.1024L9.07367 36.9483L11.2278 37.8276Z" fill="white"/>
<path d="M32.9077 65.7932H33.6521H44.8018H46.8022H72.4513H72.6218V26.0635H32.9077V65.7932ZM48.7407 63.4672L59.239 44.4397L61.9838 49.9758H57.1301V52.3021H63.1313L68.6829 63.4828H48.7407V63.4672ZM70.2957 28.3897V61.4668L59.3321 39.4153L46.0733 63.4672H37.5754L48.0893 44.3933L50.493 49.061L52.5555 47.991L48.1512 39.431L35.2338 62.9244V28.3897H70.2957Z" fill="white"/>
<path d="M63.9067 38.9966C66.3721 38.9966 68.3726 36.9962 68.3726 34.5305C68.3726 32.0649 66.3721 30.0645 63.9067 30.0645C61.4409 30.0645 59.4404 32.0649 59.4404 34.5305C59.4404 36.9962 61.4409 38.9966 63.9067 38.9966ZM63.9067 32.3907C65.0851 32.3907 66.0467 33.3521 66.0467 34.5307C66.0467 35.7091 65.0851 36.6707 63.9067 36.6707C62.7279 36.6707 61.7667 35.7093 61.7667 34.5307C61.7667 33.3521 62.7279 32.3907 63.9067 32.3907Z" fill="white"/>
</svg>
