<svg width="190" height="142" viewBox="0 0 190 142" fill="none" xmlns="http://www.w3.org/2000/svg">
<path d="M189.815 0.0805054H0V119.671H189.815V0.0805054ZM184.252 114.108H5.56233V5.64284H184.252V114.108Z" fill="white"/>
<path d="M190 130.795H126.065C124.917 127.558 121.825 125.233 118.2 125.233C114.576 125.233 111.486 127.555 110.337 130.789L0.146841 130.494L0.131638 136.057L110.333 136.351C111.479 139.592 114.572 141.92 118.2 141.92C121.825 141.92 124.917 139.595 126.065 136.358H190V130.795H190ZM118.2 136.358C116.666 136.358 115.418 135.11 115.418 133.577C115.418 132.043 116.666 130.795 118.2 130.795C119.733 130.795 120.981 132.043 120.981 133.577C120.981 135.11 119.733 136.358 118.2 136.358Z" fill="white"/>
<path d="M80.9935 78.6328C81.6551 78.9788 82.3741 79.1501 83.0905 79.1501C83.9946 79.1501 84.8938 78.8776 85.6677 78.3402L105.822 64.3443C107.066 63.4799 107.792 62.0593 107.762 60.5441C107.734 59.0289 106.953 57.6372 105.677 56.8214L85.5227 43.9454C84.1307 43.0562 82.3656 42.9965 80.9164 43.7904C79.4676 44.5839 78.5676 46.1032 78.5676 47.7552V74.6268C78.568 76.3152 79.4976 77.85 80.9935 78.6328ZM84.1303 49.656L101.365 60.6672L84.1303 72.6355V49.656Z" fill="white"/>
<path d="M42.4128 100.202H14.6011V105.765H42.4128V100.202Z" fill="white"/>
<path d="M175.909 13.9863H170.346V19.5486H175.909V13.9863Z" fill="white"/>
<path d="M164.784 13.9863H159.222V19.5486H164.784V13.9863Z" fill="white"/>
<path d="M153.659 13.9863H148.097V19.5486H153.659V13.9863Z" fill="white"/>
</svg>
