<svg width="190" height="190" viewBox="0 0 190 190" fill="none" xmlns="http://www.w3.org/2000/svg">
<path d="M145.982 100.089H82.2544C80.7173 100.089 79.4712 101.335 79.4712 102.872C79.4712 104.409 80.7173 105.655 82.2544 105.655H145.982C147.519 105.655 148.765 104.409 148.765 102.872C148.765 101.335 147.519 100.089 145.982 100.089Z" fill="white"/>
<path d="M145.982 112.085H82.2544C80.7173 112.085 79.4712 113.331 79.4712 114.868C79.4712 116.405 80.7173 117.651 82.2544 117.651H145.982C147.519 117.651 148.765 116.405 148.765 114.868C148.765 113.331 147.519 112.085 145.982 112.085Z" fill="white"/>
<path d="M145.982 124.08H82.2544C80.7173 124.08 79.4712 125.327 79.4712 126.864C79.4712 128.401 80.7173 129.647 82.2544 129.647H145.982C147.519 129.647 148.765 128.401 148.765 126.864C148.765 125.327 147.519 124.08 145.982 124.08Z" fill="white"/>
<path d="M145.982 136.076H82.2544C80.7173 136.076 79.4712 137.322 79.4712 138.859C79.4712 140.396 80.7173 141.642 82.2544 141.642H145.982C147.519 141.642 148.765 140.396 148.765 138.859C148.765 137.322 147.519 136.076 145.982 136.076Z" fill="white"/>
<path d="M145.982 148.072H82.2544C80.7173 148.072 79.4712 149.318 79.4712 150.855C79.4712 152.392 80.7173 153.638 82.2544 153.638H145.982C147.519 153.638 148.765 152.392 148.765 150.855C148.765 149.318 147.519 148.072 145.982 148.072Z" fill="white"/>
<path d="M145.982 160.067H82.2544C80.7173 160.067 79.4712 161.313 79.4712 162.85C79.4712 164.387 80.7173 165.634 82.2544 165.634H145.982C147.519 165.634 148.765 164.387 148.765 162.85C148.765 161.313 147.519 160.067 145.982 160.067Z" fill="white"/>
<path d="M14.7788 177.63H145.982C147.519 177.63 148.765 176.383 148.765 174.846C148.765 173.309 147.519 172.063 145.982 172.063H14.7788C13.2418 172.063 11.9956 173.309 11.9956 174.846C11.9956 176.383 13.2418 177.63 14.7788 177.63Z" fill="white"/>
<path d="M11.9956 162.85C11.9956 164.387 13.2418 165.634 14.7788 165.634H67.26C68.7971 165.634 70.0432 164.387 70.0432 162.85V102.872C70.0432 101.335 68.7971 100.089 67.26 100.089H14.7788C13.2418 100.089 11.9956 101.335 11.9956 102.872V162.85ZM17.562 105.655H64.4768V160.067H17.562V105.655Z" fill="white"/>
<path d="M148.765 37.6456C148.765 36.1085 147.519 34.8624 145.982 34.8624H14.7788C13.2418 34.8624 11.9956 36.1085 11.9956 37.6456V87.8776C11.9956 89.4147 13.2418 90.6608 14.7788 90.6608H145.982C147.519 90.6608 148.765 89.4147 148.765 87.8776V37.6456ZM143.198 85.0944H17.562V40.4288H143.198V85.0944Z" fill="white"/>
<path d="M25.7632 78.6652C27.3003 78.6652 28.5464 77.4191 28.5464 75.882V58.6183L41.1829 76.917C42.0205 78.1271 43.4102 78.6437 44.722 78.2336C46.0658 77.8139 46.9341 76.5436 46.9337 74.9706L46.6885 49.6145C46.6736 48.0863 45.4304 46.858 43.906 46.858C43.8971 46.858 43.8878 46.858 43.8785 46.858C42.3415 46.8728 41.1076 48.1309 41.1224 49.6679L41.2927 67.2804L28.0529 48.1082C27.3608 47.1059 26.0976 46.6702 24.9346 47.0328C23.7716 47.3953 22.9796 48.4719 22.9796 49.6898V75.8816C22.98 77.4191 24.2261 78.6652 25.7632 78.6652Z" fill="white"/>
<path d="M55.919 78.6652H66.9757C68.5128 78.6652 69.7589 77.419 69.7589 75.882C69.7589 74.3449 68.5128 73.0988 66.9757 73.0988H58.7022V65.5448H66.1605C67.6975 65.5448 68.9437 64.2987 68.9437 62.7616C68.9437 61.2245 67.6975 59.9784 66.1605 59.9784H58.7022V52.4248H66.9757C68.5128 52.4248 69.7589 51.1786 69.7589 49.6416C69.7589 48.1045 68.5128 46.8584 66.9757 46.8584H55.919C54.3819 46.8584 53.1358 48.1045 53.1358 49.6416V75.882C53.1358 77.419 54.3819 78.6652 55.919 78.6652Z" fill="white"/>
<path d="M127.102 78.6652C132.39 78.6652 136.829 75.3087 137.654 70.6841C138.272 67.2233 136.676 62.6933 130.343 60.3573C127.04 59.139 123.971 57.8105 123.115 57.4349C122.437 56.9169 122.11 56.1046 122.236 55.2262C122.316 54.6688 122.714 53.3087 124.672 52.7187C128.639 51.5245 132.263 54.4079 132.351 54.4795C133.528 55.4581 135.275 55.303 136.261 54.13C137.249 52.9536 137.097 51.1979 135.921 50.2086C135.681 50.0075 129.98 45.3065 123.066 47.389C119.63 48.424 117.201 51.1237 116.726 54.4354C116.282 57.5307 117.623 60.5076 120.226 62.2046C120.349 62.2847 120.478 62.3552 120.612 62.4146C120.763 62.4822 124.362 64.0842 128.417 65.5797C131.096 66.5683 132.466 68.0719 132.174 69.7055C131.876 71.3736 129.897 73.0988 127.101 73.0988C124.355 73.0988 121.708 71.9862 120.019 70.123C118.987 68.9841 117.227 68.8973 116.088 69.9296C114.949 70.962 114.862 72.7218 115.895 73.861C118.621 76.8695 122.811 78.6652 127.102 78.6652Z" fill="white"/>
<path d="M81.3538 76.0278C81.3801 76.1607 81.4158 76.2913 81.4614 76.419C81.9394 77.7646 83.2156 78.6648 84.642 78.6648H84.6647C86.1004 78.6552 87.3755 77.7356 87.8379 76.3763C87.8461 76.3522 87.8539 76.3277 87.8617 76.3032L93.1869 59.0985L98.4883 76.3073C98.4998 76.3451 98.5124 76.383 98.5258 76.4201C99.0041 77.7653 100.28 78.6648 101.706 78.6648H101.729C103.165 78.6552 104.44 77.7352 104.902 76.3763C104.941 76.2609 104.973 76.1429 104.997 76.0234L110.13 50.2327C110.429 48.7254 109.45 47.2599 107.943 46.9597C106.436 46.6606 104.97 47.6384 104.67 49.1462L101.246 66.3516L95.8454 48.8218L95.8294 48.8267C95.5581 47.998 94.905 47.3082 94.0085 47.0306C92.54 46.5767 90.9814 47.398 90.5269 48.8664L85.1141 66.3534L81.7015 49.1013C81.4031 47.5932 79.9373 46.6124 78.4314 46.9111C76.9237 47.2094 75.9429 48.6738 76.2412 50.1812L81.3538 76.0278Z" fill="white"/>
<path d="M180.273 0.00667969C180.209 0.00408203 179.967 0 179.906 0H128.617C127.08 0 125.834 1.24613 125.834 2.7832C125.834 4.32027 127.08 5.56641 128.617 5.56641H170.886C170.2 6.92869 169.812 8.46688 169.812 10.0938V73.291C169.812 74.8281 171.059 76.0742 172.596 76.0742C174.133 76.0742 175.379 74.8281 175.379 73.291V10.0938C175.36 7.64676 177.474 5.53227 179.991 5.56195C182.336 5.59201 184.432 7.73953 184.434 10.2682V173.152C184.434 179.373 179.124 184.434 172.597 184.434C172.597 184.434 172.597 184.434 172.596 184.434C172.596 184.434 172.596 184.434 172.596 184.434C166.07 184.434 160.762 179.373 160.762 173.152V152.137H165.1C170.768 152.137 175.379 147.526 175.379 141.858V86.2793C175.379 84.7422 174.133 83.4961 172.596 83.4961C171.059 83.4961 169.812 84.7422 169.812 86.2793V141.858C169.812 144.457 167.698 146.571 165.1 146.571H160.762V33.5209C160.762 27.8528 156.148 23.2416 150.479 23.2416H20.9371V10.0938C20.9371 7.5974 22.9662 5.56641 25.4607 5.56641H115.629C117.166 5.56641 118.412 4.32027 118.412 2.7832C118.412 1.24613 117.166 0 115.629 0H25.4607C19.8969 0 15.3707 4.52809 15.3707 10.0938V23.2416H10.2793C4.61121 23.2416 0 27.8528 0 33.5209V115.585C0 117.122 1.24613 118.368 2.7832 118.368C4.32027 118.368 5.56641 117.122 5.56641 115.585V33.5209C5.56641 30.9221 7.68053 28.808 10.2793 28.808H150.479C153.079 28.808 155.195 30.9221 155.195 33.5209V173.152C155.195 177.487 156.895 181.445 159.683 184.434H17.4043C10.8768 184.434 5.56641 179.373 5.56641 173.152V128.573C5.56641 127.036 4.32027 125.79 2.7832 125.79C1.24613 125.79 0 127.036 0 128.573V173.152C0 182.442 7.80744 190 17.4043 190H172.596H172.596C172.596 190 172.597 190 172.597 190C182.193 190 190 182.442 190 173.152V10.2682C190 4.70807 185.727 0.200391 180.273 0.00667969Z" fill="white"/>
</svg>
