<svg width="189" height="174" viewBox="0 0 189 174" fill="none" xmlns="http://www.w3.org/2000/svg">
<path d="M157.371 42.5378L55.6474 0.993824L24.7472 76.642L22.6847 81.7245L27.8039 83.8238L29.8664 78.7049L58.6674 8.21271L142.749 42.5378H60.5091V154.795L7.6216 133.176L19.8855 103.123L17.3446 102.092L19.8855 103.123L21.5061 99.1823L16.4236 97.083L14.8034 101.06L0.439453 136.196L60.5091 160.762V173.136H188.124V89.5695V88.612V84.045H182.599V88.612V89.5695V167.612H66.0332V163.008V48.0622H170.888H182.599V61.9471V67.4719H188.124V61.9471V42.5378H157.371Z" fill="white"/>
<path d="M182.599 72.996H188.124V78.5205H182.599V72.996Z" fill="white"/>
<path d="M25.6663 88.9655L23.5779 94.0815L18.4619 91.9931L20.5503 86.8771L25.6663 88.9655Z" fill="white"/>
<path d="M77.1561 155.384H78.924H105.404H110.156H171.072H171.477V61.026H77.1561V155.384ZM114.759 149.86L139.693 104.67L146.212 117.818H134.684V123.343H148.937L162.122 149.897H114.759V149.86ZM165.952 66.5509V145.109L139.914 92.7367L108.424 149.86H88.2417L113.212 104.559L118.921 115.645L123.82 113.104L113.359 92.7738L82.6805 148.571V66.5509H165.952Z" fill="white"/>
<path d="M150.779 91.7422C156.634 91.7422 161.385 86.9911 161.385 81.1352C161.385 75.2794 156.634 70.5283 150.779 70.5283C144.923 70.5283 140.171 75.2794 140.171 81.1352C140.171 86.9911 144.923 91.7422 150.779 91.7422ZM150.779 76.0531C153.578 76.0531 155.861 78.3364 155.861 81.1356C155.861 83.9344 153.578 86.2181 150.779 86.2181C147.979 86.2181 145.696 83.9348 145.696 81.1356C145.696 78.3364 147.979 76.0531 150.779 76.0531Z" fill="white"/>
</svg>
