<svg width="78" height="80" viewBox="0 0 78 80" fill="none" xmlns="http://www.w3.org/2000/svg">
<path d="M76.4611 35.1274L40.8641 0.758249C39.827 -0.252587 38.1731 -0.252587 37.1361 0.758249L1.5404 35.126C1.01636 35.6318 0.720459 36.3288 0.720459 37.0571C0.720459 38.5395 1.92219 39.741 3.40439 39.741H8.13483V77.3161C8.13483 78.7985 9.33639 80 10.8188 80H29.6063C31.0887 80 32.2902 78.7985 32.2902 77.3161V55.8446H45.7099V77.3161C45.7099 78.7985 46.9115 80 48.3938 80H67.1814C68.6637 80 69.8653 78.7985 69.8653 77.3161V39.741H74.5957C75.3234 39.741 76.0197 39.4456 76.5255 38.9224C77.5556 37.8566 77.5267 36.1575 76.4611 35.1274ZM69.8653 37.0571C68.3829 37.0571 67.1814 38.2587 67.1814 39.741V77.3161H48.3938V55.8446C48.3938 54.3623 47.1923 53.1607 45.7099 53.1607H32.2902C30.8079 53.1607 29.6063 54.3623 29.6063 55.8446V77.3161H10.8188V39.741C10.8188 38.2587 9.6172 37.0571 8.13483 37.0571H3.40439L39.0001 2.68934L74.6091 37.0571H69.8653Z" fill="white"/>
</svg>
