<svg width="80" height="60" viewBox="0 0 80 60" fill="none" xmlns="http://www.w3.org/2000/svg">
<path d="M79.9219 0.13916H0V50.4929H79.9219V0.13916ZM77.5799 48.1509H2.34203V2.48119H77.5799V48.1509Z" fill="white"/>
<path d="M80.0002 55.177H53.0801C52.5967 53.8141 51.295 52.835 49.7685 52.835C48.2429 52.835 46.9418 53.8128 46.4578 55.1743L0.0620656 55.0502L0.0556641 57.3922L46.4561 57.5164C46.9388 58.8807 48.241 59.8611 49.7686 59.8611C51.2952 59.8611 52.5969 58.8819 53.0803 57.519H80.0004V55.177H80.0002ZM49.7685 57.519C49.1227 57.519 48.5975 56.9938 48.5975 56.348C48.5975 55.7022 49.1227 55.177 49.7685 55.177C50.4142 55.177 50.9395 55.7022 50.9395 56.348C50.9395 56.9938 50.4142 57.519 49.7685 57.519Z" fill="white"/>
<path d="M34.1025 33.2138C34.381 33.3595 34.6838 33.4316 34.9854 33.4316C35.3661 33.4316 35.7447 33.3168 36.0706 33.0906L44.5564 27.1976C45.0804 26.8336 45.386 26.2355 45.3736 25.5975C45.3614 24.9595 45.0329 24.3736 44.4954 24.0301L36.0095 18.6086C35.4234 18.2341 34.6802 18.209 34.07 18.5433C33.46 18.8774 33.0811 19.5171 33.0811 20.2127V31.5271C33.0812 32.2379 33.4726 32.8842 34.1025 33.2138ZM35.4232 21.013L42.68 25.6493L35.4232 30.6886V21.013Z" fill="white"/>
<path d="M17.8581 42.2957H6.14795V44.6377H17.8581V42.2957Z" fill="white"/>
<path d="M74.0667 5.99414H71.7246V8.33618H74.0667V5.99414Z" fill="white"/>
<path d="M69.3826 5.99414H67.0405V8.33618H69.3826V5.99414Z" fill="white"/>
<path d="M64.6985 5.99414H62.3564V8.33618H64.6985V5.99414Z" fill="white"/>
</svg>
