<?xml version="1.0" encoding="UTF-8" standalone="no"?>
<!DOCTYPE svg PUBLIC "-//W3C//DTD SVG 1.1//EN" "http://www.w3.org/Graphics/SVG/1.1/DTD/svg11.dtd">
<svg width="100%" height="100%" viewBox="0 0 139 139" version="1.1" xmlns="http://www.w3.org/2000/svg" xmlns:xlink="http://www.w3.org/1999/xlink" xml:space="preserve" xmlns:serif="http://www.serif.com/" style="fill-rule:evenodd;clip-rule:evenodd;stroke-linejoin:round;stroke-miterlimit:2;">
    <g transform="matrix(1,0,0,1,-4686.45,-59.2988)">
        <g transform="matrix(2.66667,0,0,2.66667,0,0)">
            <path d="M1809.25,48.154L1807.25,48.154C1807.25,54.762 1804.58,60.734 1800.25,65.066C1795.92,69.395 1789.95,72.07 1783.34,72.071C1776.73,72.07 1770.76,69.395 1766.43,65.066C1762.1,60.734 1759.42,54.762 1759.42,48.154C1759.42,41.546 1762.1,35.574 1766.43,31.242C1770.76,26.913 1776.73,24.238 1783.34,24.237C1789.95,24.238 1795.92,26.913 1800.25,31.242C1804.58,35.574 1807.25,41.546 1807.25,48.154L1809.25,48.154C1809.25,33.84 1797.65,22.238 1783.34,22.237C1769.02,22.238 1757.42,33.84 1757.42,48.154C1757.42,62.468 1769.02,74.07 1783.34,74.071C1797.65,74.07 1809.25,62.468 1809.25,48.154Z" style="fill:white;fill-rule:nonzero;"/>
        </g>
        <g transform="matrix(2.66667,0,0,2.66667,0,0)">
            <rect x="1789.25" y="28.321" width="3.25" height="10.416" style="fill:white;fill-rule:nonzero;"/>
        </g>
        <g transform="matrix(2.66667,0,0,2.66667,0,0)">
            <rect x="1790.59" y="35.988" width="11.25" height="2.749" style="fill:white;fill-rule:nonzero;"/>
        </g>
        <g transform="matrix(2.66667,0,0,2.66667,0,0)">
            <rect x="1779.34" y="30.571" width="11.25" height="2.958" style="fill:white;fill-rule:nonzero;"/>
        </g>
        <g transform="matrix(2.66667,0,0,2.66667,0,0)">
            <rect x="1762.92" y="40.071" width="19.42" height="2.729" style="fill:white;fill-rule:nonzero;"/>
        </g>
        <g transform="matrix(2.66667,0,0,2.66667,0,0)">
            <rect x="1769.67" y="35.071" width="2.96" height="5" style="fill:white;fill-rule:nonzero;"/>
        </g>
        <g transform="matrix(2.66667,0,0,2.66667,0,0)">
            <rect x="1779.42" y="41.592" width="2.92" height="17.583" style="fill:white;fill-rule:nonzero;"/>
        </g>
        <g transform="matrix(2.66667,0,0,2.66667,0,0)">
            <rect x="1764.46" y="40.487" width="2.92" height="16.584" style="fill:white;fill-rule:nonzero;"/>
        </g>
        <g transform="matrix(2.66667,0,0,2.66667,0,0)">
            <rect x="1780.34" y="48.362" width="19.33" height="2.959" style="fill:white;fill-rule:nonzero;"/>
        </g>
        <g transform="matrix(2.66667,0,0,2.66667,0,0)">
            <rect x="1785.5" y="50.779" width="2.81" height="10.792" style="fill:white;fill-rule:nonzero;"/>
        </g>
        <g transform="matrix(2.66667,0,0,2.66667,0,0)">
            <rect x="1794.17" y="50.779" width="2.67" height="6.292" style="fill:white;fill-rule:nonzero;"/>
        </g>
        <g transform="matrix(2.66667,0,0,2.66667,0,0)">
            <rect x="1794.05" y="50.779" width="2.91" height="6.292" style="fill:white;fill-rule:nonzero;"/>
        </g>
        <g transform="matrix(2.66667,0,0,2.66667,0,0)">
            <rect x="1779.84" y="61.237" width="13.33" height="3.25" style="fill:white;fill-rule:nonzero;"/>
        </g>
    </g>
</svg>
